<?xml version="1.0" encoding="UTF-8"?>
<!DOCTYPE svg PUBLIC "-//W3C//DTD SVG 1.1//EN" 
"http://www.w3.org/Graphics/SVG/1.1/DTD/svg11.dtd">

<svg width="100%" height="100%" version="1.1"
xmlns="http://www.w3.org/2000/svg">
<path d="M 24.888305099815117 99.2857666015625 L 24.316234024375664 98.56183624267578 L 23.620883377403008 97.9553451538086 L 22.825930984824883 97.48694610595703 L 21.958445938438164 97.17259979248047 L 21.04796925386785 97.02301025390625 L 20.125506790488945 97.04325866699219 L 19.2224744876325 97.23267364501953 L 18.369620712608086 97.58478546142578 L 17.59599057039617 98.08761596679688 L 16.92792645296453 98.72404479980469 L 16.388181122153984 99.4723892211914 L 15.995135696738945 100.30717468261719 L 15.762172134727226 101.19995880126953 L 15.697223099082695 102.12035369873047 L 15.80250492891668 103.0370101928711 L 16.074427994102226 103.91871643066406 L 22.374396713584648 119.17771911621094 L 22.374396713584648 138.18614196777344 L 22.4595293124616 139.10488891601562 L 22.712035568565117 139.99235153198242 L 23.123309524863945 140.81830215454102 L 23.679351242393242 141.55461883544922 L 24.361224563926445 142.17622756958008 L 25.14570561251043 142.66195678710938 L 26.006080063194023 142.99526977539062 L 26.913054855674492 143.16481399536133 L 27.835738571494804 143.16481399536133 L 28.742709549278008 142.99526977539062 L 29.603087814658867 142.66195678710938 L 30.38756886324285 142.17622756958008 L 31.069442184776054 141.55461883544922 L 31.62548390230535 140.81830215454102 L 32.036757858604176 139.99235153198242 L 32.289260300010426 139.10488891601562 L 32.374396713584645 138.18614196777344 L 32.374396713584645 117.19456481933594 L 25.317611130088554 100.10249328613281 z" fill="rgb(89%, 60%, 71%)" style="stroke:none;"/>
<path d="M 24.888305099815117 99.2857666015625 L 24.316234024375664 98.56183624267578 L 23.620883377403008 97.9553451538086 L 22.825930984824883 97.48694610595703 L 21.958445938438164 97.17259979248047 L 21.04796925386785 97.02301025390625 L 20.125506790488945 97.04325866699219 L 19.2224744876325 97.23267364501953 L 18.369620712608086 97.58478546142578 L 17.59599057039617 98.08761596679688 L 16.92792645296453 98.72404479980469 L 16.388181122153984 99.4723892211914 L 15.995135696738945 100.30717468261719 L 15.762172134727226 101.19995880126953 L 15.697223099082695 102.12035369873047 L 15.80250492891668 103.0370101928711 L 16.074427994102226 103.91871643066406 L 22.374396713584648 119.17771911621094 L 22.374396713584648 138.18614196777344 L 22.4595293124616 139.10488891601562 L 22.712035568565117 139.99235153198242 L 23.123309524863945 140.81830215454102 L 23.679351242393242 141.55461883544922 L 24.361224563926445 142.17622756958008 L 25.14570561251043 142.66195678710938 L 26.006080063194023 142.99526977539062 L 26.913054855674492 143.16481399536133 L 27.835738571494804 143.16481399536133 L 28.742709549278008 142.99526977539062 L 29.603087814658867 142.66195678710938 L 30.38756886324285 142.17622756958008 L 31.069442184776054 141.55461883544922 L 31.62548390230535 140.81830215454102 L 32.036757858604176 139.99235153198242 L 32.289260300010426 139.10488891601562 L 32.374396713584645 138.18614196777344 L 32.374396713584645 117.19456481933594 L 25.317611130088554 100.10249328613281 z" style="fill:none; stroke:rgb(43%, 84%, 43%); stroke-width:1.0;"/>
<path d="M 62.360488327354176 104.73544311523438 L 62.93255558809636 105.45938110351562 L 63.62790623506902 106.06587219238281 L 64.42286625704168 106.53426361083984 L 65.2903513034284 106.8486099243164 L 66.20082798799871 106.99820709228516 L 67.12328282198308 106.97795104980469 L 68.02632084688543 106.78854370117188 L 68.87917271456121 106.4364242553711 L 69.65280094942449 105.93359375 L 70.3208688815534 105.29716491699219 L 70.86061039766668 104.54882049560547 L 71.25365391573308 103.71404266357422 L 71.48662510713933 102.82125091552734 L 71.55156651338933 101.9008560180664 L 71.44628849825261 100.98419952392578 L 71.1743616183698 100.10249328613281 L 64.87439671358464 84.84349060058594 L 64.87439671358464 65.83506774902344 L 64.78926030001043 64.91632080078125 L 64.53675785860418 64.02885437011719 L 64.12548008760808 63.202911376953125 L 63.56944218477605 62.46659851074219 L 62.88757267794011 61.84498596191406 L 62.10308781465886 61.3592529296875 L 61.24271336397527 61.02593994140625 L 60.3357385714948 60.85639953613281 L 59.41305485567449 60.85639953613281 L 58.50608006319402 61.02593994140625 L 57.645705612510426 61.3592529296875 L 56.861220749229176 61.84498596191406 L 56.17935124239324 62.46659851074219 L 55.62331333956121 63.202911376953125 L 55.21203556856511 64.02885437011719 L 54.95953312715886 64.91632080078125 L 54.874396713584645 65.83506774902344 L 54.874396713584645 86.82664489746094 L 61.93118229708074 103.91871643066406 z" fill="rgb(89%, 60%, 71%)" style="stroke:none;"/>
<path d="M 62.360488327354176 104.73544311523438 L 62.93255558809636 105.45938110351562 L 63.62790623506902 106.06587219238281 L 64.42286625704168 106.53426361083984 L 65.2903513034284 106.8486099243164 L 66.20082798799871 106.99820709228516 L 67.12328282198308 106.97795104980469 L 68.02632084688543 106.78854370117188 L 68.87917271456121 106.4364242553711 L 69.65280094942449 105.93359375 L 70.3208688815534 105.29716491699219 L 70.86061039766668 104.54882049560547 L 71.25365391573308 103.71404266357422 L 71.48662510713933 102.82125091552734 L 71.55156651338933 101.9008560180664 L 71.44628849825261 100.98419952392578 L 71.1743616183698 100.10249328613281 L 64.87439671358464 84.84349060058594 L 64.87439671358464 65.83506774902344 L 64.78926030001043 64.91632080078125 L 64.53675785860418 64.02885437011719 L 64.12548008760808 63.202911376953125 L 63.56944218477605 62.46659851074219 L 62.88757267794011 61.84498596191406 L 62.10308781465886 61.3592529296875 L 61.24271336397527 61.02593994140625 L 60.3357385714948 60.85639953613281 L 59.41305485567449 60.85639953613281 L 58.50608006319402 61.02593994140625 L 57.645705612510426 61.3592529296875 L 56.861220749229176 61.84498596191406 L 56.17935124239324 62.46659851074219 L 55.62331333956121 63.202911376953125 L 55.21203556856511 64.02885437011719 L 54.95953312715886 64.91632080078125 L 54.874396713584645 65.83506774902344 L 54.874396713584645 86.82664489746094 L 61.93118229708074 103.91871643066406 z" style="fill:none; stroke:rgb(43%, 84%, 43%); stroke-width:1.0;"/>
<path d="M 66.53184452852605 52.93528747558594 L 66.64530125460027 53.85096740722656 L 66.92507115206121 54.73020935058594 L 67.36164799532293 55.54307556152344 L 67.94014683565496 56.261871337890625 L 68.64088383516668 56.86213684082031 L 69.43997898897527 57.32342529296875 L 70.31023350557683 57.63002014160156 L 71.22200718721746 57.77149963378906 L 72.14425602754949 57.743011474609375 L 73.04556217989324 57.545562744140625 L 73.89524021944402 57.18585205078125 L 74.66435948213933 56.67613220214844 L 75.32672062715886 56.033782958984375 L 75.85976353487371 55.28065490722656 L 76.24535313448308 54.44239807128906 L 76.47034397920964 53.54756164550781 L 79.38013401827214 34.793731689453125 L 71.02052250704168 16.123367309570312 L 53.852614792197926 5.0 L 33.3961748202741 5.0 L 16.22827282747625 16.123367309570312 L 7.868661316245781 34.793731689453125 L 11.005090149253594 55.00830078125 L 22.374396713584648 67.74235534667969 L 22.374396713584648 85.83506774902344 L 22.4595293124616 86.75381469726562 L 22.712035568565117 87.64128112792969 L 23.123309524863945 88.46723175048828 L 23.679351242393242 89.20354461669922 L 24.361224563926445 89.82515716552734 L 25.14570561251043 90.31088256835938 L 26.006080063194023 90.64419555664062 L 26.913054855674492 90.8137435913086 L 27.835738571494804 90.8137435913086 L 28.742709549278008 90.64419555664062 L 29.603087814658867 90.31088256835938 L 30.38756886324285 89.82515716552734 L 31.069442184776054 89.20354461669922 L 31.62548390230535 88.46723175048828 L 32.036757858604176 87.64128112792969 L 32.289260300010426 86.75381469726562 L 32.374396713584645 85.83506774902344 L 32.374396713584645 63.92778015136719 L 20.433566482871758 50.55360412597656 L 18.20370999178289 36.181976318359375 L 24.147010238975273 22.908203125 L 36.35260334810613 15.0 L 50.89619007906316 15.0 L 63.10178318819402 22.908203125 L 69.04508152803777 36.181976318359375 L 66.58858433565496 52.01434326171875 z" fill="rgb(42%, 58%, 52%)" style="stroke:none;"/>
<path d="M 66.53184452852605 52.93528747558594 L 66.64530125460027 53.85096740722656 L 66.92507115206121 54.73020935058594 L 67.36164799532293 55.54307556152344 L 67.94014683565496 56.261871337890625 L 68.64088383516668 56.86213684082031 L 69.43997898897527 57.32342529296875 L 70.31023350557683 57.63002014160156 L 71.22200718721746 57.77149963378906 L 72.14425602754949 57.743011474609375 L 73.04556217989324 57.545562744140625 L 73.89524021944402 57.18585205078125 L 74.66435948213933 56.67613220214844 L 75.32672062715886 56.033782958984375 L 75.85976353487371 55.28065490722656 L 76.24535313448308 54.44239807128906 L 76.47034397920964 53.54756164550781 L 79.38013401827214 34.793731689453125 L 71.02052250704168 16.123367309570312 L 53.852614792197926 5.0 L 33.3961748202741 5.0 L 16.22827282747625 16.123367309570312 L 7.868661316245781 34.793731689453125 L 11.005090149253594 55.00830078125 L 22.374396713584648 67.74235534667969 L 22.374396713584648 85.83506774902344 L 22.4595293124616 86.75381469726562 L 22.712035568565117 87.64128112792969 L 23.123309524863945 88.46723175048828 L 23.679351242393242 89.20354461669922 L 24.361224563926445 89.82515716552734 L 25.14570561251043 90.31088256835938 L 26.006080063194023 90.64419555664062 L 26.913054855674492 90.8137435913086 L 27.835738571494804 90.8137435913086 L 28.742709549278008 90.64419555664062 L 29.603087814658867 90.31088256835938 L 30.38756886324285 89.82515716552734 L 31.069442184776054 89.20354461669922 L 31.62548390230535 88.46723175048828 L 32.036757858604176 87.64128112792969 L 32.289260300010426 86.75381469726562 L 32.374396713584645 85.83506774902344 L 32.374396713584645 63.92778015136719 L 20.433566482871758 50.55360412597656 L 18.20370999178289 36.181976318359375 L 24.147010238975273 22.908203125 L 36.35260334810613 15.0 L 50.89619007906316 15.0 L 63.10178318819402 22.908203125 L 69.04508152803777 36.181976318359375 L 66.58858433565496 52.01434326171875 z" style="fill:none; stroke:rgb(43%, 84%, 43%); stroke-width:1.0;"/>
<line x1="27.374396344562637" y1="173.18614196777344" x2="27.374396344562637" y2="163.18614196777344" stroke="rgb(35%, 35%, 35%)" stroke-width="1.0" />
<line x1="27.374396344562637" y1="153.18614196777344" x2="27.374396344562637" y2="143.18614196777344" stroke="rgb(35%, 35%, 35%)" stroke-width="1.0" />
<line x1="27.374396344562637" y1="133.18614196777344" x2="27.374396344562637" y2="123.18614196777344" stroke="rgb(35%, 35%, 35%)" stroke-width="1.0" />
<line x1="25.466284537676" y1="113.56455032285068" x2="22.604130999960017" y2="106.63219718261344" stroke="rgb(35%, 35%, 35%)" stroke-width="1.0" />
<line x1="22.60413099996001" y1="97.38901389276792" x2="25.466284537676" y2="90.45666075253068" stroke="rgb(35%, 35%, 35%)" stroke-width="1.0" />
<line x1="27.37439634456263" y1="80.83506910760792" x2="27.37439634456263" y2="70.83506910760792" stroke="rgb(35%, 35%, 35%)" stroke-width="1.0" />
<line x1="24.04437966237281" y1="62.1053252965215" x2="19.049344952468743" y2="56.51069873051421" stroke="rgb(35%, 35%, 35%)" stroke-width="1.0" />
<line x1="14.952716731340775" y1="47.84007374818242" x2="13.802797192952486" y2="40.42873761888339" stroke="rgb(35%, 35%, 35%)" stroke-width="1.0" />
<line x1="15.079457122646307" y1="30.92441019447861" x2="18.14437026922602" y2="24.07922754022144" stroke="rgb(35%, 35%, 35%)" stroke-width="1.0" />
<line x1="24.383851774495806" y1="16.79699087064151" x2="30.678179035724494" y2="12.718797337375321" stroke="rgb(35%, 35%, 35%)" stroke-width="1.0" />
<line x1="39.874389072362305" y1="10.000006920954803" x2="47.37440361676292" y2="10.000006920954775" stroke="rgb(35%, 35%, 35%)" stroke-width="1.0" />
<line x1="56.57061365340073" y1="12.718797337375292" x2="62.86494091462944" y2="16.79699087064151" stroke="rgb(35%, 35%, 35%)" stroke-width="1.0" />
<line x1="69.10442241989922" y1="24.07922754022144" x2="72.16933556647894" y2="30.92441019447861" stroke="rgb(35%, 35%, 35%)" stroke-width="1.0" />
<line x1="73.44599549617276" y1="40.42873761888339" x2="72.29607595778447" y2="47.84007374818239" stroke="rgb(35%, 35%, 35%)" stroke-width="1.0" />
<line x1="68.19944773665651" y1="56.51069873051418" x2="63.204413026752434" y2="62.1053252965215" stroke="rgb(35%, 35%, 35%)" stroke-width="1.0" />
<line x1="59.874396344562626" y1="70.83506910760792" x2="59.874396344562626" y2="80.83506910760792" stroke="rgb(35%, 35%, 35%)" stroke-width="1.0" />
<line x1="61.782508151449264" y1="90.45666075253068" x2="64.64466168916525" y2="97.38901389276792" stroke="rgb(35%, 35%, 35%)" stroke-width="1.0" />
<line x1="64.64466168916525" y1="106.63219718261344" x2="61.782508151449264" y2="113.56455032285068" stroke="rgb(35%, 35%, 35%)" stroke-width="1.0" />
<line x1="59.874396344562626" y1="123.18614196777344" x2="59.874396344562626" y2="133.18614196777344" stroke="rgb(35%, 35%, 35%)" stroke-width="1.0" />
<line x1="59.874396344562626" y1="143.18614196777344" x2="59.874396344562626" y2="153.18614196777344" stroke="rgb(35%, 35%, 35%)" stroke-width="1.0" />
<line x1="59.874396344562626" y1="163.18614196777344" x2="59.874396344562626" y2="173.18614196777344" stroke="rgb(35%, 35%, 35%)" stroke-width="1.0" />
<line x1="32.37439634456264" y1="176.93614196777344" x2="54.874396344562626" y2="176.93614196777344" stroke="rgb(0%, 0%, 100%)" stroke-width="1.0" />
<line x1="32.37439634456264" y1="179.43614196777344" x2="54.874396344562626" y2="179.43614196777344" stroke="rgb(0%, 0%, 100%)" stroke-width="1.0" />
<line x1="32.37439634456264" y1="156.93614196777344" x2="54.874396344562626" y2="156.93614196777344" stroke="rgb(0%, 0%, 100%)" stroke-width="1.0" />
<line x1="32.37439634456264" y1="159.43614196777344" x2="54.874396344562626" y2="159.43614196777344" stroke="rgb(0%, 0%, 100%)" stroke-width="1.0" />
<line x1="32.37439634456264" y1="136.93614196777344" x2="54.874396344562626" y2="136.93614196777344" stroke="rgb(0%, 0%, 100%)" stroke-width="1.0" />
<line x1="32.37439634456264" y1="139.43614196777344" x2="54.874396344562626" y2="139.43614196777344" stroke="rgb(0%, 0%, 100%)" stroke-width="1.0" />
<line x1="32.37439634456264" y1="118.18614196777344" x2="54.874396344562626" y2="118.18614196777344" stroke="rgb(0%, 0%, 100%)" stroke-width="1.0" />
<line x1="32.374396344562626" y1="85.83506910760792" x2="54.874396344562626" y2="85.83506910760792" stroke="rgb(0%, 0%, 100%)" stroke-width="1.0" />
<line x1="32.374396344562626" y1="64.58506910760792" x2="54.874396344562626" y2="64.58506910760792" stroke="rgb(0%, 0%, 100%)" stroke-width="1.0" />
<line x1="32.374396344562626" y1="67.08506910760792" x2="54.874396344562626" y2="67.08506910760792" stroke="rgb(0%, 0%, 100%)" stroke-width="1.0" />
<circle cx="27.374396344562637" cy="178.18614196777344" r="5.0" stroke="none" stroke-width="1.0" fill="rgb(94%, 94%, 94%)"/>
<circle cx="27.374396344562637" cy="178.18614196777344" r="5.0" stroke="rgb(35%, 35%, 35%)" stroke-width="1.0" fill="none"/>
<text x="27.374396344562637" y="181.18614196777344" text-anchor="middle" font-family="Verdana" font-size="7.5" fill="rgb(0%, 0%, 0%)" >G</text>
<circle cx="27.374396344562637" cy="158.18614196777344" r="5.0" stroke="none" stroke-width="1.0" fill="rgb(94%, 94%, 94%)"/>
<circle cx="27.374396344562637" cy="158.18614196777344" r="5.0" stroke="rgb(35%, 35%, 35%)" stroke-width="1.0" fill="none"/>
<text x="27.374396344562637" y="161.18614196777344" text-anchor="middle" font-family="Verdana" font-size="7.5" fill="rgb(0%, 0%, 0%)" >G</text>
<circle cx="27.374396344562637" cy="138.18614196777344" r="5.0" stroke="none" stroke-width="1.0" fill="rgb(94%, 94%, 94%)"/>
<circle cx="27.374396344562637" cy="138.18614196777344" r="5.0" stroke="rgb(35%, 35%, 35%)" stroke-width="1.0" fill="none"/>
<text x="27.374396344562637" y="141.18614196777344" text-anchor="middle" font-family="Verdana" font-size="7.5" fill="rgb(0%, 0%, 0%)" >C</text>
<circle cx="27.374396344562637" cy="118.18614196777344" r="5.0" stroke="none" stroke-width="1.0" fill="rgb(94%, 94%, 94%)"/>
<circle cx="27.374396344562637" cy="118.18614196777344" r="5.0" stroke="rgb(35%, 35%, 35%)" stroke-width="1.0" fill="none"/>
<text x="27.374396344562637" y="121.18614196777344" text-anchor="middle" font-family="Verdana" font-size="7.5" fill="rgb(0%, 0%, 0%)" >A</text>
<circle cx="20.69601919307338" cy="102.01060553769068" r="5.0" stroke="none" stroke-width="1.0" fill="rgb(94%, 94%, 94%)"/>
<circle cx="20.69601919307338" cy="102.01060553769068" r="5.0" stroke="rgb(35%, 35%, 35%)" stroke-width="1.0" fill="none"/>
<text x="20.69601919307338" y="105.01060553769068" text-anchor="middle" font-family="Verdana" font-size="7.5" fill="rgb(0%, 0%, 0%)" >G</text>
<circle cx="27.37439634456263" cy="85.83506910760792" r="5.0" stroke="none" stroke-width="1.0" fill="rgb(94%, 94%, 94%)"/>
<circle cx="27.37439634456263" cy="85.83506910760792" r="5.0" stroke="rgb(35%, 35%, 35%)" stroke-width="1.0" fill="none"/>
<text x="27.37439634456263" y="88.83506910760792" text-anchor="middle" font-family="Verdana" font-size="7.5" fill="rgb(0%, 0%, 0%)" >U</text>
<circle cx="27.37439634456263" cy="65.83506910760792" r="5.0" stroke="none" stroke-width="1.0" fill="rgb(94%, 94%, 94%)"/>
<circle cx="27.37439634456263" cy="65.83506910760792" r="5.0" stroke="rgb(35%, 35%, 35%)" stroke-width="1.0" fill="none"/>
<text x="27.37439634456263" y="68.83506910760792" text-anchor="middle" font-family="Verdana" font-size="7.5" fill="rgb(0%, 0%, 0%)" >G</text>
<circle cx="15.719328270278925" cy="52.780954919427785" r="5.0" stroke="none" stroke-width="1.0" fill="rgb(94%, 94%, 94%)"/>
<circle cx="15.719328270278925" cy="52.780954919427785" r="5.0" stroke="rgb(35%, 35%, 35%)" stroke-width="1.0" fill="none"/>
<text x="15.719328270278925" y="55.780954919427785" text-anchor="middle" font-family="Verdana" font-size="7.5" fill="rgb(0%, 0%, 0%)" >C</text>
<circle cx="13.036185654014336" cy="35.48785644763802" r="5.0" stroke="none" stroke-width="1.0" fill="rgb(94%, 94%, 94%)"/>
<circle cx="13.036185654014336" cy="35.48785644763802" r="5.0" stroke="rgb(35%, 35%, 35%)" stroke-width="1.0" fill="none"/>
<text x="13.036185654014336" y="38.48785644763802" text-anchor="middle" font-family="Verdana" font-size="7.5" fill="rgb(0%, 0%, 0%)" >U</text>
<circle cx="20.18764173785799" cy="19.515781287062026" r="5.0" stroke="none" stroke-width="1.0" fill="rgb(94%, 94%, 94%)"/>
<circle cx="20.18764173785799" cy="19.515781287062026" r="5.0" stroke="rgb(35%, 35%, 35%)" stroke-width="1.0" fill="none"/>
<text x="20.18764173785799" y="22.515781287062026" text-anchor="middle" font-family="Verdana" font-size="7.5" fill="rgb(0%, 0%, 0%)" >C</text>
<circle cx="34.874389072362305" cy="10.000006920954803" r="5.0" stroke="none" stroke-width="1.0" fill="rgb(94%, 94%, 94%)"/>
<circle cx="34.874389072362305" cy="10.000006920954803" r="5.0" stroke="rgb(35%, 35%, 35%)" stroke-width="1.0" fill="none"/>
<text x="34.874389072362305" y="13.000006920954803" text-anchor="middle" font-family="Verdana" font-size="7.5" fill="rgb(0%, 0%, 0%)" >A</text>
<circle cx="52.37440361676292" cy="10.000006920954775" r="5.0" stroke="none" stroke-width="1.0" fill="rgb(94%, 94%, 94%)"/>
<circle cx="52.37440361676292" cy="10.000006920954775" r="5.0" stroke="rgb(35%, 35%, 35%)" stroke-width="1.0" fill="none"/>
<text x="52.37440361676292" y="13.000006920954775" text-anchor="middle" font-family="Verdana" font-size="7.5" fill="rgb(0%, 0%, 0%)" >G</text>
<circle cx="67.06115095126725" cy="19.515781287062026" r="5.0" stroke="none" stroke-width="1.0" fill="rgb(94%, 94%, 94%)"/>
<circle cx="67.06115095126725" cy="19.515781287062026" r="5.0" stroke="rgb(35%, 35%, 35%)" stroke-width="1.0" fill="none"/>
<text x="67.06115095126725" y="22.515781287062026" text-anchor="middle" font-family="Verdana" font-size="7.5" fill="rgb(0%, 0%, 0%)" >U</text>
<circle cx="74.2126070351109" cy="35.48785644763802" r="5.0" stroke="none" stroke-width="1.0" fill="rgb(94%, 94%, 94%)"/>
<circle cx="74.2126070351109" cy="35.48785644763802" r="5.0" stroke="rgb(35%, 35%, 35%)" stroke-width="1.0" fill="none"/>
<text x="74.2126070351109" y="38.48785644763802" text-anchor="middle" font-family="Verdana" font-size="7.5" fill="rgb(0%, 0%, 0%)" >A</text>
<circle cx="71.52946441884632" cy="52.78095491942776" r="5.0" stroke="none" stroke-width="1.0" fill="rgb(94%, 94%, 94%)"/>
<circle cx="71.52946441884632" cy="52.78095491942776" r="5.0" stroke="rgb(35%, 35%, 35%)" stroke-width="1.0" fill="none"/>
<text x="71.52946441884632" y="55.78095491942776" text-anchor="middle" font-family="Verdana" font-size="7.5" fill="rgb(0%, 0%, 0%)" >A</text>
<circle cx="59.874396344562626" cy="65.83506910760792" r="5.0" stroke="none" stroke-width="1.0" fill="rgb(94%, 94%, 94%)"/>
<circle cx="59.874396344562626" cy="65.83506910760792" r="5.0" stroke="rgb(35%, 35%, 35%)" stroke-width="1.0" fill="none"/>
<text x="59.874396344562626" y="68.83506910760792" text-anchor="middle" font-family="Verdana" font-size="7.5" fill="rgb(0%, 0%, 0%)" >C</text>
<circle cx="59.874396344562626" cy="85.83506910760792" r="5.0" stroke="none" stroke-width="1.0" fill="rgb(94%, 94%, 94%)"/>
<circle cx="59.874396344562626" cy="85.83506910760792" r="5.0" stroke="rgb(35%, 35%, 35%)" stroke-width="1.0" fill="none"/>
<text x="59.874396344562626" y="88.83506910760792" text-anchor="middle" font-family="Verdana" font-size="7.5" fill="rgb(0%, 0%, 0%)" >A</text>
<circle cx="66.55277349605188" cy="102.01060553769068" r="5.0" stroke="none" stroke-width="1.0" fill="rgb(94%, 94%, 94%)"/>
<circle cx="66.55277349605188" cy="102.01060553769068" r="5.0" stroke="rgb(35%, 35%, 35%)" stroke-width="1.0" fill="none"/>
<text x="66.55277349605188" y="105.01060553769068" text-anchor="middle" font-family="Verdana" font-size="7.5" fill="rgb(0%, 0%, 0%)" >G</text>
<circle cx="59.874396344562626" cy="118.18614196777344" r="5.0" stroke="none" stroke-width="1.0" fill="rgb(94%, 94%, 94%)"/>
<circle cx="59.874396344562626" cy="118.18614196777344" r="5.0" stroke="rgb(35%, 35%, 35%)" stroke-width="1.0" fill="none"/>
<text x="59.874396344562626" y="121.18614196777344" text-anchor="middle" font-family="Verdana" font-size="7.5" fill="rgb(0%, 0%, 0%)" >U</text>
<circle cx="59.874396344562626" cy="138.18614196777344" r="5.0" stroke="none" stroke-width="1.0" fill="rgb(94%, 94%, 94%)"/>
<circle cx="59.874396344562626" cy="138.18614196777344" r="5.0" stroke="rgb(35%, 35%, 35%)" stroke-width="1.0" fill="none"/>
<text x="59.874396344562626" y="141.18614196777344" text-anchor="middle" font-family="Verdana" font-size="7.5" fill="rgb(0%, 0%, 0%)" >G</text>
<circle cx="59.874396344562626" cy="158.18614196777344" r="5.0" stroke="none" stroke-width="1.0" fill="rgb(94%, 94%, 94%)"/>
<circle cx="59.874396344562626" cy="158.18614196777344" r="5.0" stroke="rgb(35%, 35%, 35%)" stroke-width="1.0" fill="none"/>
<text x="59.874396344562626" y="161.18614196777344" text-anchor="middle" font-family="Verdana" font-size="7.5" fill="rgb(0%, 0%, 0%)" >C</text>
<circle cx="59.874396344562626" cy="178.18614196777344" r="5.0" stroke="none" stroke-width="1.0" fill="rgb(94%, 94%, 94%)"/>
<circle cx="59.874396344562626" cy="178.18614196777344" r="5.0" stroke="rgb(35%, 35%, 35%)" stroke-width="1.0" fill="none"/>
<text x="59.874396344562626" y="181.18614196777344" text-anchor="middle" font-family="Verdana" font-size="7.5" fill="rgb(0%, 0%, 0%)" >C</text>
<line x1="27.374396344562637" y1="185.68614196777344" x2="27.374396344562637" y2="190.68614196777344" stroke="rgb(25%, 25%, 25%)" stroke-width="1.0" />
<text x="27.37439634456263" y="201.18614196777344" text-anchor="middle" font-family="Verdana" font-size="7.5" fill="rgb(25%, 25%, 25%)" >1</text>
<line x1="14.492276086161244" y1="14.635944190039936" x2="10.695365651696747" y2="11.382719458691895" stroke="rgb(25%, 25%, 25%)" stroke-width="1.0" />
<text x="5.0" y="9.502882361669805" text-anchor="middle" font-family="Verdana" font-size="7.5" fill="rgb(25%, 25%, 25%)" >10</text>
<line x1="67.37439634456263" y1="138.18614196777344" x2="72.37439634456263" y2="138.18614196777344" stroke="rgb(25%, 25%, 25%)" stroke-width="1.0" />
<text x="79.87439634456263" y="141.18614196777344" text-anchor="middle" font-family="Verdana" font-size="7.5" fill="rgb(25%, 25%, 25%)" >20</text>
<line x1="59.874396344562626" y1="185.68614196777344" x2="59.874396344562626" y2="190.68614196777344" stroke="rgb(25%, 25%, 25%)" stroke-width="1.0" />
<text x="59.874396344562626" y="201.18614196777344" text-anchor="middle" font-family="Verdana" font-size="7.5" fill="rgb(25%, 25%, 25%)" >22</text>
<text x="43.624396344562626" y="104.4106055376907" text-anchor="middle" font-family="Verdana" font-size="6.0" fill="rgb(0%, 0%, 0%)" >99</text>
<text x="43.624396344562626" y="39.12393373653813" text-anchor="middle" font-family="Verdana" font-size="6.0" fill="rgb(0%, 0%, 0%)" >151</text>
</svg>
