<?xml version="1.0" encoding="UTF-8"?>
<!DOCTYPE svg PUBLIC "-//W3C//DTD SVG 1.1//EN" 
"http://www.w3.org/Graphics/SVG/1.1/DTD/svg11.dtd">

<svg width="100%" height="100%" version="1.1"
xmlns="http://www.w3.org/2000/svg">
<path d="M 42.51390838623047 87.07405715820948 L 41.94184112548828 86.35011916992823 L 41.24648666381836 85.74362808106105 L 40.451534271240234 85.27524429199855 L 39.584049224853516 84.96089797852198 L 38.6735725402832 84.81130081055323 L 37.7511100769043 84.83154922363917 L 36.84807586669922 85.02095657227198 L 35.99522399902344 85.3730836474673 L 35.22159194946289 85.87590652344386 L 34.553531646728516 86.51233535645167 L 34.01378631591797 87.26068740723292 L 33.6207389831543 88.09546523926417 L 33.38777542114258 88.98825698731105 L 33.32282638549805 89.90865188477198 L 33.42810821533203 90.82530837891261 L 33.70003128051758 91.70700698731105 L 40.0 106.96600967285792 L 40.0 125.97443252442042 L 40.08513259887695 126.89317947266261 L 40.33763885498047 127.78063827393214 L 40.7489128112793 128.60659652588527 L 41.304954528808594 129.3429093920962 L 41.9868278503418 129.96452194092433 L 42.77130889892578 130.45024734375636 L 43.631683349609375 130.7835603320376 L 44.538658142089844 130.95310073731105 L 45.461341857910156 130.95310073731105 L 46.368316650390625 130.7835603320376 L 47.22869110107422 130.45024734375636 L 48.0131721496582 129.96452194092433 L 48.695045471191406 129.3429093920962 L 49.25108337402344 128.60659652588527 L 49.66236114501953 127.78063827393214 L 49.91486358642578 126.89317947266261 L 50.0 125.97443252442042 L 50.0 104.98285537598292 L 42.943214416503906 87.8907838427798 z" fill="rgb(45%, 90%, 46%)" style="stroke:none;"/>
<path d="M 42.51390838623047 87.07405715820948 L 41.94184112548828 86.35011916992823 L 41.24648666381836 85.74362808106105 L 40.451534271240234 85.27524429199855 L 39.584049224853516 84.96089797852198 L 38.6735725402832 84.81130081055323 L 37.7511100769043 84.83154922363917 L 36.84807586669922 85.02095657227198 L 35.99522399902344 85.3730836474673 L 35.22159194946289 85.87590652344386 L 34.553531646728516 86.51233535645167 L 34.01378631591797 87.26068740723292 L 33.6207389831543 88.09546523926417 L 33.38777542114258 88.98825698731105 L 33.32282638549805 89.90865188477198 L 33.42810821533203 90.82530837891261 L 33.70003128051758 91.70700698731105 L 40.0 106.96600967285792 L 40.0 125.97443252442042 L 40.08513259887695 126.89317947266261 L 40.33763885498047 127.78063827393214 L 40.7489128112793 128.60659652588527 L 41.304954528808594 129.3429093920962 L 41.9868278503418 129.96452194092433 L 42.77130889892578 130.45024734375636 L 43.631683349609375 130.7835603320376 L 44.538658142089844 130.95310073731105 L 45.461341857910156 130.95310073731105 L 46.368316650390625 130.7835603320376 L 47.22869110107422 130.45024734375636 L 48.0131721496582 129.96452194092433 L 48.695045471191406 129.3429093920962 L 49.25108337402344 128.60659652588527 L 49.66236114501953 127.78063827393214 L 49.91486358642578 126.89317947266261 L 50.0 125.97443252442042 L 50.0 104.98285537598292 L 42.943214416503906 87.8907838427798 z" style="fill:none; stroke:rgb(43%, 84%, 43%); stroke-width:1.0;"/>
<path d="M 79.98609161376953 92.52373367188136 L 80.55815887451172 93.24767166016261 L 81.25350952148438 93.8541627490298 L 82.04846954345703 94.3225465380923 L 82.91595458984375 94.63689285156886 L 83.82643127441406 94.78649001953761 L 84.74888610839844 94.76624160645167 L 85.65192413330078 94.57683425781886 L 86.50477600097656 94.22470718262355 L 87.27840423583984 93.72188430664698 L 87.94647216796875 93.08545547363917 L 88.48621368408203 92.33711868164698 L 88.87926483154297 91.50232559082667 L 89.11222839355469 90.6095338427798 L 89.17716979980469 89.68913894531886 L 89.07189178466797 88.77248245117823 L 88.79997253417969 87.8907838427798 L 82.5 72.63178115723292 L 82.5 53.62335830567042 L 82.41486358642578 52.704611357428234 L 82.16236114501953 51.81714492676417 L 81.75108337402344 50.99120193360011 L 81.1950454711914 50.25488906738917 L 80.51317596435547 49.63327651856105 L 79.72869110107422 49.147543486334484 L 78.86831665039062 48.814230498053234 L 77.96134185791016 48.6446900927798 L 77.03865814208984 48.6446900927798 L 76.13168334960938 48.814230498053234 L 75.27130889892578 49.147543486334484 L 74.48682403564453 49.63327651856105 L 73.8049545288086 50.25488906738917 L 73.24891662597656 50.99120193360011 L 72.83763885498047 51.81714492676417 L 72.58513641357422 52.704611357428234 L 72.5 53.62335830567042 L 72.5 74.61493545410792 L 79.5567855834961 91.70700698731105 z" fill="rgb(45%, 90%, 46%)" style="stroke:none;"/>
<path d="M 79.98609161376953 92.52373367188136 L 80.55815887451172 93.24767166016261 L 81.25350952148438 93.8541627490298 L 82.04846954345703 94.3225465380923 L 82.91595458984375 94.63689285156886 L 83.82643127441406 94.78649001953761 L 84.74888610839844 94.76624160645167 L 85.65192413330078 94.57683425781886 L 86.50477600097656 94.22470718262355 L 87.27840423583984 93.72188430664698 L 87.94647216796875 93.08545547363917 L 88.48621368408203 92.33711868164698 L 88.87926483154297 91.50232559082667 L 89.11222839355469 90.6095338427798 L 89.17716979980469 89.68913894531886 L 89.07189178466797 88.77248245117823 L 88.79997253417969 87.8907838427798 L 82.5 72.63178115723292 L 82.5 53.62335830567042 L 82.41486358642578 52.704611357428234 L 82.16236114501953 51.81714492676417 L 81.75108337402344 50.99120193360011 L 81.1950454711914 50.25488906738917 L 80.51317596435547 49.63327651856105 L 79.72869110107422 49.147543486334484 L 78.86831665039062 48.814230498053234 L 77.96134185791016 48.6446900927798 L 77.03865814208984 48.6446900927798 L 76.13168334960938 48.814230498053234 L 75.27130889892578 49.147543486334484 L 74.48682403564453 49.63327651856105 L 73.8049545288086 50.25488906738917 L 73.24891662597656 50.99120193360011 L 72.83763885498047 51.81714492676417 L 72.58513641357422 52.704611357428234 L 72.5 53.62335830567042 L 72.5 74.61493545410792 L 79.5567855834961 91.70700698731105 z" style="fill:none; stroke:rgb(43%, 84%, 43%); stroke-width:1.0;"/>
<path d="M 81.65877532958984 40.26254897949855 L 82.05799865722656 41.094381865240734 L 82.60327911376953 41.838705595709484 L 83.27603912353516 42.47016006348292 L 84.05337524414062 42.967245634771984 L 84.90882110595703 43.3130250537173 L 85.813232421875 43.49573379395167 L 86.7358169555664 43.50916152832667 L 87.64515686035156 43.3528199755923 L 88.51029205322266 43.03204971192042 L 89.30175018310547 42.5577760302798 L 89.99258422851562 41.94614272949855 L 90.55927276611328 41.217978056646984 L 90.98251342773438 40.398092802740734 L 91.24788665771484 39.51439529297511 L 91.34637451171875 38.59699111817042 L 91.27460479736328 37.67709976074855 L 88.00001525878906 18.63066726563136 L 71.82588958740234 5.000006254889172 L 50.674110412597656 5.000006254889172 L 34.49998474121094 18.63066726563136 L 30.916015625 39.4765992724673 L 40.0 54.98029189942042 L 40.0 73.62335830567042 L 40.08513259887695 74.54210525391261 L 40.33763885498047 75.42957168457667 L 40.7489128112793 76.25551467774073 L 41.304954528808594 76.99184280274073 L 41.9868278503418 77.6134400927798 L 42.77130889892578 78.09917312500636 L 43.631683349609375 78.43248611328761 L 44.538658142089844 78.60202651856105 L 45.461341857910156 78.60202651856105 L 46.368316650390625 78.43248611328761 L 47.22869110107422 78.09917312500636 L 48.0131721496582 77.6134400927798 L 48.695045471191406 76.99184280274073 L 49.25108337402344 76.25551467774073 L 49.66236114501953 75.42957168457667 L 49.91486358642578 74.54210525391261 L 50.0 73.62335830567042 L 50.0 52.266439970709484 L 41.39018249511719 37.57201248047511 L 43.73662567138672 23.92406326172511 L 54.32591247558594 15.000006254889172 L 68.17408752441406 15.000006254889172 L 78.76337432861328 23.92406326172511 L 81.41919708251953 39.37151199219386 z" fill="rgb(94%, 85%, 42%)" style="stroke:none;"/>
<path d="M 81.65877532958984 40.26254897949855 L 82.05799865722656 41.094381865240734 L 82.60327911376953 41.838705595709484 L 83.27603912353516 42.47016006348292 L 84.05337524414062 42.967245634771984 L 84.90882110595703 43.3130250537173 L 85.813232421875 43.49573379395167 L 86.7358169555664 43.50916152832667 L 87.64515686035156 43.3528199755923 L 88.51029205322266 43.03204971192042 L 89.30175018310547 42.5577760302798 L 89.99258422851562 41.94614272949855 L 90.55927276611328 41.217978056646984 L 90.98251342773438 40.398092802740734 L 91.24788665771484 39.51439529297511 L 91.34637451171875 38.59699111817042 L 91.27460479736328 37.67709976074855 L 88.00001525878906 18.63066726563136 L 71.82588958740234 5.000006254889172 L 50.674110412597656 5.000006254889172 L 34.49998474121094 18.63066726563136 L 30.916015625 39.4765992724673 L 40.0 54.98029189942042 L 40.0 73.62335830567042 L 40.08513259887695 74.54210525391261 L 40.33763885498047 75.42957168457667 L 40.7489128112793 76.25551467774073 L 41.304954528808594 76.99184280274073 L 41.9868278503418 77.6134400927798 L 42.77130889892578 78.09917312500636 L 43.631683349609375 78.43248611328761 L 44.538658142089844 78.60202651856105 L 45.461341857910156 78.60202651856105 L 46.368316650390625 78.43248611328761 L 47.22869110107422 78.09917312500636 L 48.0131721496582 77.6134400927798 L 48.695045471191406 76.99184280274073 L 49.25108337402344 76.25551467774073 L 49.66236114501953 75.42957168457667 L 49.91486358642578 74.54210525391261 L 50.0 73.62335830567042 L 50.0 52.266439970709484 L 41.39018249511719 37.57201248047511 L 43.73662567138672 23.92406326172511 L 54.32591247558594 15.000006254889172 L 68.17408752441406 15.000006254889172 L 78.76337432861328 23.92406326172511 L 81.41919708251953 39.37151199219386 z" style="fill:none; stroke:rgb(43%, 84%, 43%); stroke-width:1.0;"/>
<line x1="15.0" y1="205.97443252442042" x2="22.5" y2="205.97443252442042" stroke="rgb(35%, 35%, 35%)" stroke-width="1.0" />
<line x1="32.5" y1="205.97443252442042" x2="40.0" y2="205.97443252442042" stroke="rgb(35%, 35%, 35%)" stroke-width="1.0" />
<line x1="45.0" y1="200.97443252442042" x2="45.0" y2="190.97443252442042" stroke="rgb(35%, 35%, 35%)" stroke-width="1.0" />
<line x1="45.0" y1="180.97443252442042" x2="45.0" y2="170.97443252442042" stroke="rgb(35%, 35%, 35%)" stroke-width="1.0" />
<line x1="45.0" y1="160.97443252442042" x2="45.0" y2="150.97443252442042" stroke="rgb(35%, 35%, 35%)" stroke-width="1.0" />
<line x1="45.0" y1="140.97443252442042" x2="45.0" y2="130.97443252442042" stroke="rgb(35%, 35%, 35%)" stroke-width="1.0" />
<line x1="45.0" y1="120.97443252442042" x2="45.0" y2="110.97443252442042" stroke="rgb(35%, 35%, 35%)" stroke-width="1.0" />
<line x1="43.09188819311336" y1="101.35284087949768" x2="40.22973465539738" y2="94.42048773926041" stroke="rgb(35%, 35%, 35%)" stroke-width="1.0" />
<line x1="40.22973465539737" y1="85.17730444941492" x2="43.091888193113355" y2="78.24495130917765" stroke="rgb(35%, 35%, 35%)" stroke-width="1.0" />
<line x1="44.999999999999986" y1="68.6233596642549" x2="44.999999999999986" y2="58.623359664254906" stroke="rgb(35%, 35%, 35%)" stroke-width="1.0" />
<line x1="42.47231075926156" y1="49.309337515232585" x2="38.680789149235565" y2="42.83832520069245" stroke="rgb(35%, 35%, 35%)" stroke-width="1.0" />
<line x1="37.00030254309045" y1="33.596600981136845" x2="38.27110238879977" y2="26.20507175868434" stroke="rgb(35%, 35%, 35%)" stroke-width="1.0" />
<line x1="42.94165520176849" y1="18.05525960103165" x2="48.67666193850334" y2="13.22211008711946" stroke="rgb(35%, 35%, 35%)" stroke-width="1.0" />
<line x1="57.50001211687875" y1="10.000000000000028" x2="64.99998788312118" y2="10.000000000000028" stroke="rgb(35%, 35%, 35%)" stroke-width="1.0" />
<line x1="73.82333806149659" y1="13.222110087119432" x2="79.55834479823146" y2="18.055259601031622" stroke="rgb(35%, 35%, 35%)" stroke-width="1.0" />
<line x1="84.22889761120018" y1="26.20507175868434" x2="85.4996974569095" y2="33.59660098113679" stroke="rgb(35%, 35%, 35%)" stroke-width="1.0" />
<line x1="83.8192108507644" y1="42.838325200692395" x2="80.0276892407384" y2="49.309337515232585" stroke="rgb(35%, 35%, 35%)" stroke-width="1.0" />
<line x1="77.49999999999999" y1="58.623359664254906" x2="77.5" y2="68.6233596642549" stroke="rgb(35%, 35%, 35%)" stroke-width="1.0" />
<line x1="79.40811180688664" y1="78.24495130917765" x2="82.27026534460262" y2="85.17730444941492" stroke="rgb(35%, 35%, 35%)" stroke-width="1.0" />
<line x1="82.27026534460262" y1="94.42048773926041" x2="79.40811180688664" y2="101.35284087949768" stroke="rgb(35%, 35%, 35%)" stroke-width="1.0" />
<line x1="77.5" y1="110.97443252442042" x2="77.5" y2="120.97443252442042" stroke="rgb(35%, 35%, 35%)" stroke-width="1.0" />
<line x1="77.5" y1="130.97443252442042" x2="77.5" y2="140.97443252442042" stroke="rgb(35%, 35%, 35%)" stroke-width="1.0" />
<line x1="77.5" y1="150.97443252442042" x2="77.5" y2="160.97443252442042" stroke="rgb(35%, 35%, 35%)" stroke-width="1.0" />
<line x1="77.5" y1="170.97443252442042" x2="77.5" y2="180.97443252442042" stroke="rgb(35%, 35%, 35%)" stroke-width="1.0" />
<line x1="77.5" y1="190.97443252442042" x2="77.5" y2="200.97443252442042" stroke="rgb(35%, 35%, 35%)" stroke-width="1.0" />
<line x1="82.5" y1="205.97443252442042" x2="90.0" y2="205.97443252442042" stroke="rgb(35%, 35%, 35%)" stroke-width="1.0" />
<line x1="50.0" y1="205.97443252442042" x2="72.5" y2="205.97443252442042" stroke="rgb(0%, 0%, 100%)" stroke-width="1.0" />
<circle cx="61.25" cy="205.97443252442042" r="2.75" stroke="none" stroke-width="1.0" fill="rgb(100%, 100%, 100%)"/>
<circle cx="61.25" cy="205.97443252442042" r="2.75" stroke="rgb(0%, 0%, 100%)" stroke-width="1.0" fill="none"/>
<line x1="50.0" y1="185.97443252442042" x2="72.5" y2="185.97443252442042" stroke="rgb(0%, 0%, 100%)" stroke-width="1.0" />
<line x1="50.0" y1="164.72443252442042" x2="72.5" y2="164.72443252442042" stroke="rgb(0%, 0%, 100%)" stroke-width="1.0" />
<line x1="50.0" y1="167.22443252442042" x2="72.5" y2="167.22443252442042" stroke="rgb(0%, 0%, 100%)" stroke-width="1.0" />
<line x1="50.0" y1="145.97443252442042" x2="72.5" y2="145.97443252442042" stroke="rgb(0%, 0%, 100%)" stroke-width="1.0" />
<line x1="50.0" y1="125.97443252442042" x2="72.5" y2="125.97443252442042" stroke="rgb(0%, 0%, 100%)" stroke-width="1.0" />
<line x1="50.0" y1="104.72443252442042" x2="72.5" y2="104.72443252442042" stroke="rgb(0%, 0%, 100%)" stroke-width="1.0" />
<line x1="50.0" y1="107.22443252442042" x2="72.5" y2="107.22443252442042" stroke="rgb(0%, 0%, 100%)" stroke-width="1.0" />
<line x1="49.999999999999986" y1="72.3733596642549" x2="72.5" y2="72.3733596642549" stroke="rgb(0%, 0%, 100%)" stroke-width="1.0" />
<line x1="49.999999999999986" y1="74.8733596642549" x2="72.5" y2="74.8733596642549" stroke="rgb(0%, 0%, 100%)" stroke-width="1.0" />
<line x1="49.999999999999986" y1="52.373359664254906" x2="72.49999999999999" y2="52.373359664254906" stroke="rgb(0%, 0%, 100%)" stroke-width="1.0" />
<line x1="49.999999999999986" y1="54.873359664254906" x2="72.49999999999999" y2="54.873359664254906" stroke="rgb(0%, 0%, 100%)" stroke-width="1.0" />
<circle cx="10.0" cy="205.97443252442042" r="5.0" stroke="none" stroke-width="1.0" fill="rgb(94%, 94%, 94%)"/>
<circle cx="10.0" cy="205.97443252442042" r="5.0" stroke="rgb(35%, 35%, 35%)" stroke-width="1.0" fill="none"/>
<text x="10.0" y="208.97443252442042" text-anchor="middle" font-family="Verdana" font-size="7.5" fill="rgb(0%, 0%, 0%)" >G</text>
<circle cx="27.5" cy="205.97443252442042" r="5.0" stroke="none" stroke-width="1.0" fill="rgb(94%, 94%, 94%)"/>
<circle cx="27.5" cy="205.97443252442042" r="5.0" stroke="rgb(35%, 35%, 35%)" stroke-width="1.0" fill="none"/>
<text x="27.5" y="208.97443252442042" text-anchor="middle" font-family="Verdana" font-size="7.5" fill="rgb(0%, 0%, 0%)" >C</text>
<circle cx="45.0" cy="205.97443252442042" r="5.0" stroke="none" stroke-width="1.0" fill="rgb(94%, 94%, 94%)"/>
<circle cx="45.0" cy="205.97443252442042" r="5.0" stroke="rgb(35%, 35%, 35%)" stroke-width="1.0" fill="none"/>
<text x="45.0" y="208.97443252442042" text-anchor="middle" font-family="Verdana" font-size="7.5" fill="rgb(0%, 0%, 0%)" >U</text>
<circle cx="45.0" cy="185.97443252442042" r="5.0" stroke="none" stroke-width="1.0" fill="rgb(94%, 94%, 94%)"/>
<circle cx="45.0" cy="185.97443252442042" r="5.0" stroke="rgb(35%, 35%, 35%)" stroke-width="1.0" fill="none"/>
<text x="45.0" y="188.97443252442042" text-anchor="middle" font-family="Verdana" font-size="7.5" fill="rgb(0%, 0%, 0%)" >U</text>
<circle cx="45.0" cy="165.97443252442042" r="5.0" stroke="none" stroke-width="1.0" fill="rgb(94%, 94%, 94%)"/>
<circle cx="45.0" cy="165.97443252442042" r="5.0" stroke="rgb(35%, 35%, 35%)" stroke-width="1.0" fill="none"/>
<text x="45.0" y="168.97443252442042" text-anchor="middle" font-family="Verdana" font-size="7.5" fill="rgb(0%, 0%, 0%)" >G</text>
<circle cx="45.0" cy="145.97443252442042" r="5.0" stroke="none" stroke-width="1.0" fill="rgb(94%, 94%, 94%)"/>
<circle cx="45.0" cy="145.97443252442042" r="5.0" stroke="rgb(35%, 35%, 35%)" stroke-width="1.0" fill="none"/>
<text x="45.0" y="148.97443252442042" text-anchor="middle" font-family="Verdana" font-size="7.5" fill="rgb(0%, 0%, 0%)" >U</text>
<circle cx="45.0" cy="125.97443252442042" r="5.0" stroke="none" stroke-width="1.0" fill="rgb(94%, 94%, 94%)"/>
<circle cx="45.0" cy="125.97443252442042" r="5.0" stroke="rgb(35%, 35%, 35%)" stroke-width="1.0" fill="none"/>
<text x="45.0" y="128.97443252442042" text-anchor="middle" font-family="Verdana" font-size="7.5" fill="rgb(0%, 0%, 0%)" >A</text>
<circle cx="45.0" cy="105.97443252442042" r="5.0" stroke="none" stroke-width="1.0" fill="rgb(94%, 94%, 94%)"/>
<circle cx="45.0" cy="105.97443252442042" r="5.0" stroke="rgb(35%, 35%, 35%)" stroke-width="1.0" fill="none"/>
<text x="45.0" y="108.97443252442042" text-anchor="middle" font-family="Verdana" font-size="7.5" fill="rgb(0%, 0%, 0%)" >C</text>
<circle cx="38.32162284851074" cy="89.79889609433766" r="5.0" stroke="none" stroke-width="1.0" fill="rgb(94%, 94%, 94%)"/>
<circle cx="38.32162284851074" cy="89.79889609433766" r="5.0" stroke="rgb(35%, 35%, 35%)" stroke-width="1.0" fill="none"/>
<text x="38.32162284851074" y="92.79889609433766" text-anchor="middle" font-family="Verdana" font-size="7.5" fill="rgb(0%, 0%, 0%)" >U</text>
<circle cx="44.999999999999986" cy="73.6233596642549" r="5.0" stroke="none" stroke-width="1.0" fill="rgb(94%, 94%, 94%)"/>
<circle cx="44.999999999999986" cy="73.6233596642549" r="5.0" stroke="rgb(35%, 35%, 35%)" stroke-width="1.0" fill="none"/>
<text x="44.999999999999986" y="76.6233596642549" text-anchor="middle" font-family="Verdana" font-size="7.5" fill="rgb(0%, 0%, 0%)" >G</text>
<circle cx="44.999999999999986" cy="53.623359664254906" r="5.0" stroke="none" stroke-width="1.0" fill="rgb(94%, 94%, 94%)"/>
<circle cx="44.999999999999986" cy="53.623359664254906" r="5.0" stroke="rgb(35%, 35%, 35%)" stroke-width="1.0" fill="none"/>
<text x="44.999999999999986" y="56.623359664254906" text-anchor="middle" font-family="Verdana" font-size="7.5" fill="rgb(0%, 0%, 0%)" >C</text>
<circle cx="36.15309990849714" cy="38.52430305167013" r="5.0" stroke="none" stroke-width="1.0" fill="rgb(94%, 94%, 94%)"/>
<circle cx="36.15309990849714" cy="38.52430305167013" r="5.0" stroke="rgb(35%, 35%, 35%)" stroke-width="1.0" fill="none"/>
<text x="36.15309990849714" y="41.52430305167013" text-anchor="middle" font-family="Verdana" font-size="7.5" fill="rgb(0%, 0%, 0%)" >U</text>
<circle cx="39.11830502339308" cy="21.277369688151055" r="5.0" stroke="none" stroke-width="1.0" fill="rgb(94%, 94%, 94%)"/>
<circle cx="39.11830502339308" cy="21.277369688151055" r="5.0" stroke="rgb(35%, 35%, 35%)" stroke-width="1.0" fill="none"/>
<text x="39.11830502339308" y="24.277369688151055" text-anchor="middle" font-family="Verdana" font-size="7.5" fill="rgb(0%, 0%, 0%)" >G</text>
<circle cx="52.50001211687875" cy="10.000000000000057" r="5.0" stroke="none" stroke-width="1.0" fill="rgb(94%, 94%, 94%)"/>
<circle cx="52.50001211687875" cy="10.000000000000057" r="5.0" stroke="rgb(35%, 35%, 35%)" stroke-width="1.0" fill="none"/>
<text x="52.50001211687875" y="13.000000000000057" text-anchor="middle" font-family="Verdana" font-size="7.5" fill="rgb(0%, 0%, 0%)" >A</text>
<circle cx="69.99998788312118" cy="10.0" r="5.0" stroke="none" stroke-width="1.0" fill="rgb(94%, 94%, 94%)"/>
<circle cx="69.99998788312118" cy="10.0" r="5.0" stroke="rgb(35%, 35%, 35%)" stroke-width="1.0" fill="none"/>
<text x="69.99998788312118" y="13.0" text-anchor="middle" font-family="Verdana" font-size="7.5" fill="rgb(0%, 0%, 0%)" >A</text>
<circle cx="83.38169497660687" cy="21.277369688151055" r="5.0" stroke="none" stroke-width="1.0" fill="rgb(94%, 94%, 94%)"/>
<circle cx="83.38169497660687" cy="21.277369688151055" r="5.0" stroke="rgb(35%, 35%, 35%)" stroke-width="1.0" fill="none"/>
<text x="83.38169497660687" y="24.277369688151055" text-anchor="middle" font-family="Verdana" font-size="7.5" fill="rgb(0%, 0%, 0%)" >G</text>
<circle cx="86.34690009150282" cy="38.524303051670074" r="5.0" stroke="none" stroke-width="1.0" fill="rgb(94%, 94%, 94%)"/>
<circle cx="86.34690009150282" cy="38.524303051670074" r="5.0" stroke="rgb(35%, 35%, 35%)" stroke-width="1.0" fill="none"/>
<text x="86.34690009150282" y="41.524303051670074" text-anchor="middle" font-family="Verdana" font-size="7.5" fill="rgb(0%, 0%, 0%)" >U</text>
<circle cx="77.49999999999999" cy="53.623359664254906" r="5.0" stroke="none" stroke-width="1.0" fill="rgb(94%, 94%, 94%)"/>
<circle cx="77.49999999999999" cy="53.623359664254906" r="5.0" stroke="rgb(35%, 35%, 35%)" stroke-width="1.0" fill="none"/>
<text x="77.49999999999999" y="56.623359664254906" text-anchor="middle" font-family="Verdana" font-size="7.5" fill="rgb(0%, 0%, 0%)" >G</text>
<circle cx="77.5" cy="73.6233596642549" r="5.0" stroke="none" stroke-width="1.0" fill="rgb(94%, 94%, 94%)"/>
<circle cx="77.5" cy="73.6233596642549" r="5.0" stroke="rgb(35%, 35%, 35%)" stroke-width="1.0" fill="none"/>
<text x="77.5" y="76.6233596642549" text-anchor="middle" font-family="Verdana" font-size="7.5" fill="rgb(0%, 0%, 0%)" >C</text>
<circle cx="84.17837715148926" cy="89.79889609433766" r="5.0" stroke="none" stroke-width="1.0" fill="rgb(94%, 94%, 94%)"/>
<circle cx="84.17837715148926" cy="89.79889609433766" r="5.0" stroke="rgb(35%, 35%, 35%)" stroke-width="1.0" fill="none"/>
<text x="84.17837715148926" y="92.79889609433766" text-anchor="middle" font-family="Verdana" font-size="7.5" fill="rgb(0%, 0%, 0%)" >U</text>
<circle cx="77.5" cy="105.97443252442042" r="5.0" stroke="none" stroke-width="1.0" fill="rgb(94%, 94%, 94%)"/>
<circle cx="77.5" cy="105.97443252442042" r="5.0" stroke="rgb(35%, 35%, 35%)" stroke-width="1.0" fill="none"/>
<text x="77.5" y="108.97443252442042" text-anchor="middle" font-family="Verdana" font-size="7.5" fill="rgb(0%, 0%, 0%)" >G</text>
<circle cx="77.5" cy="125.97443252442042" r="5.0" stroke="none" stroke-width="1.0" fill="rgb(94%, 94%, 94%)"/>
<circle cx="77.5" cy="125.97443252442042" r="5.0" stroke="rgb(35%, 35%, 35%)" stroke-width="1.0" fill="none"/>
<text x="77.5" y="128.97443252442042" text-anchor="middle" font-family="Verdana" font-size="7.5" fill="rgb(0%, 0%, 0%)" >U</text>
<circle cx="77.5" cy="145.97443252442042" r="5.0" stroke="none" stroke-width="1.0" fill="rgb(94%, 94%, 94%)"/>
<circle cx="77.5" cy="145.97443252442042" r="5.0" stroke="rgb(35%, 35%, 35%)" stroke-width="1.0" fill="none"/>
<text x="77.5" y="148.97443252442042" text-anchor="middle" font-family="Verdana" font-size="7.5" fill="rgb(0%, 0%, 0%)" >A</text>
<circle cx="77.5" cy="165.97443252442042" r="5.0" stroke="none" stroke-width="1.0" fill="rgb(94%, 94%, 94%)"/>
<circle cx="77.5" cy="165.97443252442042" r="5.0" stroke="rgb(35%, 35%, 35%)" stroke-width="1.0" fill="none"/>
<text x="77.5" y="168.97443252442042" text-anchor="middle" font-family="Verdana" font-size="7.5" fill="rgb(0%, 0%, 0%)" >C</text>
<circle cx="77.5" cy="185.97443252442042" r="5.0" stroke="none" stroke-width="1.0" fill="rgb(94%, 94%, 94%)"/>
<circle cx="77.5" cy="185.97443252442042" r="5.0" stroke="rgb(35%, 35%, 35%)" stroke-width="1.0" fill="none"/>
<text x="77.5" y="188.97443252442042" text-anchor="middle" font-family="Verdana" font-size="7.5" fill="rgb(0%, 0%, 0%)" >A</text>
<circle cx="77.5" cy="205.97443252442042" r="5.0" stroke="none" stroke-width="1.0" fill="rgb(94%, 94%, 94%)"/>
<circle cx="77.5" cy="205.97443252442042" r="5.0" stroke="rgb(35%, 35%, 35%)" stroke-width="1.0" fill="none"/>
<text x="77.5" y="208.97443252442042" text-anchor="middle" font-family="Verdana" font-size="7.5" fill="rgb(0%, 0%, 0%)" >G</text>
<circle cx="95.0" cy="205.97443252442042" r="5.0" stroke="none" stroke-width="1.0" fill="rgb(94%, 94%, 94%)"/>
<circle cx="95.0" cy="205.97443252442042" r="5.0" stroke="rgb(35%, 35%, 35%)" stroke-width="1.0" fill="none"/>
<text x="95.0" y="208.97443252442042" text-anchor="middle" font-family="Verdana" font-size="7.5" fill="rgb(0%, 0%, 0%)" >U</text>
<line x1="10.0" y1="213.47443252442042" x2="10.0" y2="218.47443252442042" stroke="rgb(25%, 25%, 25%)" stroke-width="1.0" />
<text x="10.0" y="228.97443252442042" text-anchor="middle" font-family="Verdana" font-size="7.5" fill="rgb(25%, 25%, 25%)" >1</text>
<line x1="37.499999999999986" y1="73.6233596642549" x2="32.499999999999986" y2="73.6233596642549" stroke="rgb(25%, 25%, 25%)" stroke-width="1.0" />
<text x="24.999999999999986" y="76.6233596642549" text-anchor="middle" font-family="Verdana" font-size="7.5" fill="rgb(25%, 25%, 25%)" >10</text>
<line x1="91.67837715148926" y1="89.79889609433766" x2="96.67837715148926" y2="89.79889609433766" stroke="rgb(25%, 25%, 25%)" stroke-width="1.0" />
<text x="104.17837715148926" y="92.79889609433766" text-anchor="middle" font-family="Verdana" font-size="7.5" fill="rgb(25%, 25%, 25%)" >20</text>
<line x1="95.0" y1="213.47443252442042" x2="95.0" y2="218.47443252442042" stroke="rgb(25%, 25%, 25%)" stroke-width="1.0" />
<text x="95.0" y="228.97443252442042" text-anchor="middle" font-family="Verdana" font-size="7.5" fill="rgb(25%, 25%, 25%)" >27</text>
<text x="61.25" y="92.1988960943377" text-anchor="middle" font-family="Verdana" font-size="6.0" fill="rgb(0%, 0%, 0%)" >143</text>
<text x="61.24999999999997" y="33.25625810101902" text-anchor="middle" font-family="Verdana" font-size="6.0" fill="rgb(0%, 0%, 0%)" >113</text>
</svg>
