<?xml version="1.0" encoding="UTF-8"?>
<!DOCTYPE svg PUBLIC "-//W3C//DTD SVG 1.1//EN" 
"http://www.w3.org/Graphics/SVG/1.1/DTD/svg11.dtd">

<svg width="100%" height="100%" version="1.1"
xmlns="http://www.w3.org/2000/svg">
<path d="M 14.59630012512207 160.11740112304688 L 14.156373977661133 159.3063507080078 L 13.574907302856445 158.58993530273438 L 12.871700286865234 157.9925765991211 L 12.070703506469727 157.5345916748047 L 11.199188232421875 157.2315902709961 L 10.28683853149414 157.09388732910156 L 9.36471939086914 157.1261749267578 L 8.464235305786133 157.32735443115234 L 7.616048812866211 157.69056701660156 L 6.8490447998046875 158.20345306396484 L 6.18934440612793 158.84854125976562 L 5.65941047668457 159.60386657714844 L 5.277288436889648 160.4437026977539 L 5.055994033813477 161.33946228027344 L 5.003063201904297 162.2606201171875 L 5.120294570922852 163.1758270263672 L 8.815618515014648 179.7164077758789 L 8.815618515014648 199.16468811035156 L 8.900753021240234 200.08343505859375 L 9.153257369995117 200.97089767456055 L 9.564533233642578 201.79684829711914 L 10.120574951171875 202.53316497802734 L 10.802446365356445 203.1547737121582 L 11.58692741394043 203.6405029296875 L 12.447303771972656 203.97381591796875 L 13.354276657104492 204.14336013793945 L 14.276960372924805 204.14336013793945 L 15.18393325805664 203.97381591796875 L 16.0443115234375 203.6405029296875 L 16.828792572021484 203.1547737121582 L 17.510662078857422 202.53316497802734 L 18.06670379638672 201.79684829711914 L 18.477981567382812 200.97089767456055 L 18.730484008789062 200.08343505859375 L 18.81562042236328 199.16468811035156 L 18.81562042236328 178.61296844482422 L 14.879705429077148 160.9954833984375 z" fill="rgb(42%, 39%, 72%)" style="stroke:none;"/>
<path d="M 14.59630012512207 160.11740112304688 L 14.156373977661133 159.3063507080078 L 13.574907302856445 158.58993530273438 L 12.871700286865234 157.9925765991211 L 12.070703506469727 157.5345916748047 L 11.199188232421875 157.2315902709961 L 10.28683853149414 157.09388732910156 L 9.36471939086914 157.1261749267578 L 8.464235305786133 157.32735443115234 L 7.616048812866211 157.69056701660156 L 6.8490447998046875 158.20345306396484 L 6.18934440612793 158.84854125976562 L 5.65941047668457 159.60386657714844 L 5.277288436889648 160.4437026977539 L 5.055994033813477 161.33946228027344 L 5.003063201904297 162.2606201171875 L 5.120294570922852 163.1758270263672 L 8.815618515014648 179.7164077758789 L 8.815618515014648 199.16468811035156 L 8.900753021240234 200.08343505859375 L 9.153257369995117 200.97089767456055 L 9.564533233642578 201.79684829711914 L 10.120574951171875 202.53316497802734 L 10.802446365356445 203.1547737121582 L 11.58692741394043 203.6405029296875 L 12.447303771972656 203.97381591796875 L 13.354276657104492 204.14336013793945 L 14.276960372924805 204.14336013793945 L 15.18393325805664 203.97381591796875 L 16.0443115234375 203.6405029296875 L 16.828792572021484 203.1547737121582 L 17.510662078857422 202.53316497802734 L 18.06670379638672 201.79684829711914 L 18.477981567382812 200.97089767456055 L 18.730484008789062 200.08343505859375 L 18.81562042236328 199.16468811035156 L 18.81562042236328 178.61296844482422 L 14.879705429077148 160.9954833984375 z" style="fill:none; stroke:rgb(43%, 84%, 43%); stroke-width:1.0;"/>
<path d="M 45.29269027709961 160.82544708251953 L 45.14350128173828 161.73599243164062 L 45.164161682128906 162.65843963623047 L 45.353973388671875 163.56139373779297 L 45.70646667480469 164.4140853881836 L 46.20964431762695 165.18749237060547 L 46.84636306762695 165.85527801513672 L 47.594947814941406 166.39469146728516 L 48.42990493774414 166.78736877441406 L 49.32279968261719 167.01993560791016 L 50.24321746826172 167.08447265625 L 51.159828186035156 166.9787826538086 L 52.041412353515625 166.70647430419922 L 52.857948303222656 166.27680206298828 L 53.581634521484375 165.70441436767578 L 54.18781280517578 165.0087890625 L 54.655853271484375 164.21363067626953 L 63.16747283935547 146.11522674560547 L 63.48143768310547 145.24759674072266 L 63.63062286376953 144.3370590209961 L 63.609962463378906 143.41460418701172 L 63.42015075683594 142.51165771484375 L 63.067657470703125 141.6589584350586 L 62.564483642578125 140.88555145263672 L 61.927757263183594 140.21776580810547 L 61.179176330566406 139.67835998535156 L 60.34422302246094 139.28568267822266 L 59.451332092285156 139.05310821533203 L 58.530906677246094 138.9885711669922 L 57.614295959472656 139.0942611694336 L 56.73271179199219 139.3665771484375 L 55.916175842285156 139.7962417602539 L 55.19249725341797 140.3686294555664 L 54.58631134033203 141.0642547607422 L 54.11827087402344 141.85941314697266 L 45.606651306152344 159.95782470703125 z" fill="rgb(42%, 39%, 72%)" style="stroke:none;"/>
<path d="M 45.29269027709961 160.82544708251953 L 45.14350128173828 161.73599243164062 L 45.164161682128906 162.65843963623047 L 45.353973388671875 163.56139373779297 L 45.70646667480469 164.4140853881836 L 46.20964431762695 165.18749237060547 L 46.84636306762695 165.85527801513672 L 47.594947814941406 166.39469146728516 L 48.42990493774414 166.78736877441406 L 49.32279968261719 167.01993560791016 L 50.24321746826172 167.08447265625 L 51.159828186035156 166.9787826538086 L 52.041412353515625 166.70647430419922 L 52.857948303222656 166.27680206298828 L 53.581634521484375 165.70441436767578 L 54.18781280517578 165.0087890625 L 54.655853271484375 164.21363067626953 L 63.16747283935547 146.11522674560547 L 63.48143768310547 145.24759674072266 L 63.63062286376953 144.3370590209961 L 63.609962463378906 143.41460418701172 L 63.42015075683594 142.51165771484375 L 63.067657470703125 141.6589584350586 L 62.564483642578125 140.88555145263672 L 61.927757263183594 140.21776580810547 L 61.179176330566406 139.67835998535156 L 60.34422302246094 139.28568267822266 L 59.451332092285156 139.05310821533203 L 58.530906677246094 138.9885711669922 L 57.614295959472656 139.0942611694336 L 56.73271179199219 139.3665771484375 L 55.916175842285156 139.7962417602539 L 55.19249725341797 140.3686294555664 L 54.58631134033203 141.0642547607422 L 54.11827087402344 141.85941314697266 L 45.606651306152344 159.95782470703125 z" style="fill:none; stroke:rgb(43%, 84%, 43%); stroke-width:1.0;"/>
<path d="M 52.05010223388672 75.79779052734375 L 51.84051513671875 74.89923095703125 L 51.469390869140625 74.05447387695312 L 50.94935607910156 73.29229736328125 L 50.298133850097656 72.63865661621094 L 49.53788757324219 72.11579895019531 L 48.69451141357422 71.74154663085938 L 47.796730041503906 71.52864074707031 L 46.8751106262207 71.48431396484375 L 45.96104049682617 71.61009216308594 L 45.08564758300781 71.90170288085938 L 44.27873992919922 72.34918212890625 L 43.56779861450195 72.93731689453125 L 42.97703170776367 73.64608764648438 L 42.52655792236328 74.45132446289062 L 42.23171615600586 75.32563781738281 L 42.1025505065918 76.23922729492188 L 41.30959701538086 92.728515625 L 33.219974517822266 109.92962646484375 L 32.90601348876953 110.79725646972656 L 32.7568244934082 111.70779418945312 L 32.77748489379883 112.6302490234375 L 32.9672966003418 113.533203125 L 33.31978988647461 114.38589477539062 L 33.822967529296875 115.1593017578125 L 34.459686279296875 115.82708740234375 L 35.20827102661133 116.36649322509766 L 36.04322814941406 116.75917053222656 L 36.936119079589844 116.99173736572266 L 37.856544494628906 117.0562744140625 L 38.773155212402344 116.95059204101562 L 39.65473937988281 116.67827606201172 L 40.471275329589844 116.24861145019531 L 41.19495391845703 115.67622375488281 L 41.8011360168457 114.9805908203125 L 42.26918029785156 114.18544006347656 L 51.202796936035156 95.18972778320312 L 52.09100341796875 76.71955871582031 z" fill="rgb(42%, 80%, 68%)" style="stroke:none;"/>
<path d="M 52.05010223388672 75.79779052734375 L 51.84051513671875 74.89923095703125 L 51.469390869140625 74.05447387695312 L 50.94935607910156 73.29229736328125 L 50.298133850097656 72.63865661621094 L 49.53788757324219 72.11579895019531 L 48.69451141357422 71.74154663085938 L 47.796730041503906 71.52864074707031 L 46.8751106262207 71.48431396484375 L 45.96104049682617 71.61009216308594 L 45.08564758300781 71.90170288085938 L 44.27873992919922 72.34918212890625 L 43.56779861450195 72.93731689453125 L 42.97703170776367 73.64608764648438 L 42.52655792236328 74.45132446289062 L 42.23171615600586 75.32563781738281 L 42.1025505065918 76.23922729492188 L 41.30959701538086 92.728515625 L 33.219974517822266 109.92962646484375 L 32.90601348876953 110.79725646972656 L 32.7568244934082 111.70779418945312 L 32.77748489379883 112.6302490234375 L 32.9672966003418 113.533203125 L 33.31978988647461 114.38589477539062 L 33.822967529296875 115.1593017578125 L 34.459686279296875 115.82708740234375 L 35.20827102661133 116.36649322509766 L 36.04322814941406 116.75917053222656 L 36.936119079589844 116.99173736572266 L 37.856544494628906 117.0562744140625 L 38.773155212402344 116.95059204101562 L 39.65473937988281 116.67827606201172 L 40.471275329589844 116.24861145019531 L 41.19495391845703 115.67622375488281 L 41.8011360168457 114.9805908203125 L 42.26918029785156 114.18544006347656 L 51.202796936035156 95.18972778320312 L 52.09100341796875 76.71955871582031 z" style="fill:none; stroke:rgb(43%, 84%, 43%); stroke-width:1.0;"/>
<path d="M 83.64020538330078 96.67669677734375 L 83.84978485107422 97.57527160644531 L 84.22091674804688 98.42001342773438 L 84.74095153808594 99.18218994140625 L 85.39217376708984 99.83583068847656 L 86.15242004394531 100.35868835449219 L 86.99579620361328 100.73294067382812 L 87.8935775756836 100.94584655761719 L 88.81520080566406 100.99017333984375 L 89.7292709350586 100.8643798828125 L 90.60466003417969 100.57278442382812 L 91.41156768798828 100.12528991699219 L 92.12251281738281 99.53715515136719 L 92.71327209472656 98.82839965820312 L 93.16374969482422 98.02314758300781 L 93.45858764648438 97.14883422851562 L 93.58775329589844 96.23524475097656 L 94.38068389892578 79.74588012695312 L 102.47024536132812 62.54473876953125 L 102.7842025756836 61.67710876464844 L 102.93338775634766 60.766571044921875 L 102.9127197265625 59.8441162109375 L 102.72290802001953 58.941162109375 L 102.37041473388672 58.088470458984375 L 101.86723327636719 57.3150634765625 L 101.23050689697266 56.64727783203125 L 100.48192596435547 56.107879638671875 L 99.64696502685547 55.71519470214844 L 98.75407409667969 55.482635498046875 L 97.83364868164062 55.41810607910156 L 96.91703796386719 55.52378845214844 L 96.03545379638672 55.796112060546875 L 95.21892547607422 56.22578430175781 L 94.49524688720703 56.79817199707031 L 93.8890609741211 57.49378967285156 L 93.4210205078125 58.28895568847656 L 84.48748016357422 77.28469848632812 L 83.59929656982422 95.75492858886719 z" fill="rgb(42%, 80%, 68%)" style="stroke:none;"/>
<path d="M 83.64020538330078 96.67669677734375 L 83.84978485107422 97.57527160644531 L 84.22091674804688 98.42001342773438 L 84.74095153808594 99.18218994140625 L 85.39217376708984 99.83583068847656 L 86.15242004394531 100.35868835449219 L 86.99579620361328 100.73294067382812 L 87.8935775756836 100.94584655761719 L 88.81520080566406 100.99017333984375 L 89.7292709350586 100.8643798828125 L 90.60466003417969 100.57278442382812 L 91.41156768798828 100.12528991699219 L 92.12251281738281 99.53715515136719 L 92.71327209472656 98.82839965820312 L 93.16374969482422 98.02314758300781 L 93.45858764648438 97.14883422851562 L 93.58775329589844 96.23524475097656 L 94.38068389892578 79.74588012695312 L 102.47024536132812 62.54473876953125 L 102.7842025756836 61.67710876464844 L 102.93338775634766 60.766571044921875 L 102.9127197265625 59.8441162109375 L 102.72290802001953 58.941162109375 L 102.37041473388672 58.088470458984375 L 101.86723327636719 57.3150634765625 L 101.23050689697266 56.64727783203125 L 100.48192596435547 56.107879638671875 L 99.64696502685547 55.71519470214844 L 98.75407409667969 55.482635498046875 L 97.83364868164062 55.41810607910156 L 96.91703796386719 55.52378845214844 L 96.03545379638672 55.796112060546875 L 95.21892547607422 56.22578430175781 L 94.49524688720703 56.79817199707031 L 93.8890609741211 57.49378967285156 L 93.4210205078125 58.28895568847656 L 84.48748016357422 77.28469848632812 L 83.59929656982422 95.75492858886719 z" style="fill:none; stroke:rgb(43%, 84%, 43%); stroke-width:1.0;"/>
<path d="M 107.39506530761719 50.09623718261719 L 107.4023208618164 51.018890380859375 L 107.57898712158203 51.92449951171875 L 107.91905212402344 52.7822265625 L 108.41093444824219 53.5628662109375 L 109.03787994384766 54.239837646484375 L 109.77854919433594 54.790069580078125 L 110.60770416259766 55.19483947753906 L 111.49712371826172 55.44035339355469 L 112.41651153564453 55.51826477050781 L 113.33456420898438 55.42591857910156 L 114.22001647949219 55.16644287109375 L 115.04270935058594 54.748687744140625 L 115.77462768554688 54.18687438964844 L 116.39085388183594 53.50013732910156 L 116.87040710449219 52.71186828613281 L 117.19694519042969 51.84889221191406 L 122.33943176269531 33.21977233886719 L 113.5040283203125 14.001724243164062 L 94.36331939697266 5.0 L 73.92608642578125 10.451339721679688 L 61.811317443847656 27.790023803710938 L 63.43358612060547 45.68559265136719 L 55.49951171875 62.556121826171875 L 55.185546875 63.423736572265625 L 55.03636169433594 64.33428955078125 L 55.057029724121094 65.25674438476562 L 55.24684143066406 66.15968322753906 L 55.599342346191406 67.01239013671875 L 56.102516174316406 67.78578186035156 L 56.73924255371094 68.45356750488281 L 57.487831115722656 68.99298095703125 L 58.322784423828125 69.38565063476562 L 59.215675354003906 69.61820983886719 L 60.13610076904297 69.68275451660156 L 61.052711486816406 69.57705688476562 L 61.934295654296875 69.30474853515625 L 62.750831604003906 68.87507629394531 L 63.474510192871094 68.30267333984375 L 64.0806884765625 67.6070556640625 L 64.5487289428711 66.8118896484375 L 73.63775634765625 47.48554992675781 L 72.10016632080078 30.524093627929688 L 80.03177642822266 19.17236328125 L 93.4121322631836 15.603347778320312 L 105.94365692138672 21.496826171875 L 111.7282485961914 34.0789794921875 L 107.5574722290039 49.187957763671875 z" fill="rgb(79%, 51%, 98%)" style="stroke:none;"/>
<path d="M 107.39506530761719 50.09623718261719 L 107.4023208618164 51.018890380859375 L 107.57898712158203 51.92449951171875 L 107.91905212402344 52.7822265625 L 108.41093444824219 53.5628662109375 L 109.03787994384766 54.239837646484375 L 109.77854919433594 54.790069580078125 L 110.60770416259766 55.19483947753906 L 111.49712371826172 55.44035339355469 L 112.41651153564453 55.51826477050781 L 113.33456420898438 55.42591857910156 L 114.22001647949219 55.16644287109375 L 115.04270935058594 54.748687744140625 L 115.77462768554688 54.18687438964844 L 116.39085388183594 53.50013732910156 L 116.87040710449219 52.71186828613281 L 117.19694519042969 51.84889221191406 L 122.33943176269531 33.21977233886719 L 113.5040283203125 14.001724243164062 L 94.36331939697266 5.0 L 73.92608642578125 10.451339721679688 L 61.811317443847656 27.790023803710938 L 63.43358612060547 45.68559265136719 L 55.49951171875 62.556121826171875 L 55.185546875 63.423736572265625 L 55.03636169433594 64.33428955078125 L 55.057029724121094 65.25674438476562 L 55.24684143066406 66.15968322753906 L 55.599342346191406 67.01239013671875 L 56.102516174316406 67.78578186035156 L 56.73924255371094 68.45356750488281 L 57.487831115722656 68.99298095703125 L 58.322784423828125 69.38565063476562 L 59.215675354003906 69.61820983886719 L 60.13610076904297 69.68275451660156 L 61.052711486816406 69.57705688476562 L 61.934295654296875 69.30474853515625 L 62.750831604003906 68.87507629394531 L 63.474510192871094 68.30267333984375 L 64.0806884765625 67.6070556640625 L 64.5487289428711 66.8118896484375 L 73.63775634765625 47.48554992675781 L 72.10016632080078 30.524093627929688 L 80.03177642822266 19.17236328125 L 93.4121322631836 15.603347778320312 L 105.94365692138672 21.496826171875 L 111.7282485961914 34.0789794921875 L 107.5574722290039 49.187957763671875 z" style="fill:none; stroke:rgb(43%, 84%, 43%); stroke-width:1.0;"/>
<line x1="13.81561886658266" y1="214.16468811035156" x2="13.81561886658266" y2="204.16468811035156" stroke="rgb(35%, 35%, 35%)" stroke-width="1.0" />
<line x1="13.81561886658266" y1="194.16468811035156" x2="13.81561886658266" y2="184.16468811035156" stroke="rgb(35%, 35%, 35%)" stroke-width="1.0" />
<line x1="12.72544608755802" y1="174.28498286188892" x2="11.090172779024641" y2="166.9653616973792" stroke="rgb(35%, 35%, 35%)" stroke-width="1.0" />
<line x1="13.063228922223004" y1="158.1338684270135" x2="17.658112036916435" y2="152.20613513781723" stroke="rgb(35%, 35%, 35%)" stroke-width="1.0" />
<line x1="22.849245462951387" y1="143.72974520827006" x2="27.10505447057529" y2="134.6805413929818" stroke="rgb(35%, 35%, 35%)" stroke-width="1.0" />
<line x1="31.360863478199185" y1="125.63133757769357" x2="35.61667248582308" y2="116.58213376240536" stroke="rgb(35%, 35%, 35%)" stroke-width="1.0" />
<line x1="39.872481493446976" y1="107.53292994711711" x2="44.12829050107088" y2="98.48372613182886" stroke="rgb(35%, 35%, 35%)" stroke-width="1.0" />
<line x1="46.4963624999744" y1="88.96489559762972" x2="46.8566101748944" y2="81.47362684767114" stroke="rgb(35%, 35%, 35%)" stroke-width="1.0" />
<line x1="50.79031921101739" y1="73.10927197946356" x2="56.330576654555514" y2="68.05413268062009" stroke="rgb(35%, 35%, 35%)" stroke-width="1.0" />
<line x1="62.15200684199573" y1="60.159397073675905" x2="66.40778413481334" y2="51.110178343092684" stroke="rgb(35%, 35%, 35%)" stroke-width="1.0" />
<line x1="68.08426324923589" y1="41.60598772688931" x2="67.40715113912633" y2="34.13663998531459" stroke="rgb(35%, 35%, 35%)" stroke-width="1.0" />
<line x1="69.81951405985079" y1="25.058423920334207" x2="74.11515885892338" y2="18.910491564295768" stroke="rgb(35%, 35%, 35%)" stroke-width="1.0" />
<line x1="81.81002281077957" y1="13.523231542152956" x2="89.05663664439774" y2="11.590299975687827" stroke="rgb(35%, 35%, 35%)" stroke-width="1.0" />
<line x1="98.41233750883484" y1="12.429563414022425" x2="105.19922962711499" y2="15.62138607028811" stroke="rgb(35%, 35%, 35%)" stroke-width="1.0" />
<line x1="111.81241390280782" y1="22.29216529909513" x2="114.94526614560604" y2="29.106479154430644" stroke="rgb(35%, 35%, 35%)" stroke-width="1.0" />
<line x1="115.7033729932088" y1="38.46910569784097" x2="113.7076773474592" y2="45.69868627929662" stroke="rgb(35%, 35%, 35%)" stroke-width="1.0" />
<line x1="108.25389625217024" y1="53.34654699641371" x2="102.06894668810811" y2="57.58872042335324" stroke="rgb(35%, 35%, 35%)" stroke-width="1.0" />
<line x1="95.8177450092088" y1="64.94145454474983" x2="91.56196771639122" y2="73.99067327533305" stroke="rgb(35%, 35%, 35%)" stroke-width="1.0" />
<line x1="89.19392032653757" y1="83.50951168802999" x2="88.83368221137029" y2="91.0008552591379" stroke="rgb(35%, 35%, 35%)" stroke-width="1.0" />
<line x1="84.89997602125233" y1="99.36520407580585" x2="79.35965485124271" y2="104.42038372969975" stroke="rgb(35%, 35%, 35%)" stroke-width="1.0" />
<line x1="73.53820290075767" y1="112.3151054066065" x2="69.28239389313376" y2="121.36430922189474" stroke="rgb(35%, 35%, 35%)" stroke-width="1.0" />
<line x1="65.02658488550986" y1="130.413513037183" x2="60.77077587788597" y2="139.46271685247126" stroke="rgb(35%, 35%, 35%)" stroke-width="1.0" />
<line x1="56.51496687026207" y1="148.5119206677595" x2="52.259157862638176" y2="157.5611244830477" stroke="rgb(35%, 35%, 35%)" stroke-width="1.0" />
<line x1="49.04107207532806" y1="166.96542973916604" x2="47.40580015008082" y2="174.28498476187735" stroke="rgb(35%, 35%, 35%)" stroke-width="1.0" />
<line x1="46.31561886658266" y1="184.16468811035156" x2="46.31561886658266" y2="194.16468811035156" stroke="rgb(35%, 35%, 35%)" stroke-width="1.0" />
<line x1="46.31561886658266" y1="204.16468811035156" x2="46.31561886658266" y2="214.16468811035156" stroke="rgb(35%, 35%, 35%)" stroke-width="1.0" />
<line x1="18.81561886658266" y1="219.16468811035156" x2="41.31561886658266" y2="219.16468811035156" stroke="rgb(0%, 0%, 100%)" stroke-width="1.0" />
<circle cx="30.06561886658266" cy="219.16468811035156" r="2.75" stroke="none" stroke-width="1.0" fill="rgb(100%, 100%, 100%)"/>
<circle cx="30.06561886658266" cy="219.16468811035156" r="2.75" stroke="rgb(0%, 0%, 100%)" stroke-width="1.0" fill="none"/>
<line x1="18.81561886658266" y1="197.91468811035156" x2="41.31561886658266" y2="197.91468811035156" stroke="rgb(0%, 0%, 100%)" stroke-width="1.0" />
<line x1="18.81561886658266" y1="200.41468811035156" x2="41.31561886658266" y2="200.41468811035156" stroke="rgb(0%, 0%, 100%)" stroke-width="1.0" />
<line x1="18.81561886658266" y1="179.16468811035156" x2="41.31561886658266" y2="179.16468811035156" stroke="rgb(0%, 0%, 100%)" stroke-width="1.0" />
<line x1="25.777918992736545" y1="149.2511011428151" x2="46.1386275771351" y2="158.82667140996887" stroke="rgb(0%, 0%, 100%)" stroke-width="1.0" />
<line x1="24.71396674083057" y1="151.51340209663715" x2="45.07467532522912" y2="161.08897236379093" stroke="rgb(0%, 0%, 100%)" stroke-width="1.0" />
<line x1="33.757560882031356" y1="132.28384398914966" x2="54.118269466429894" y2="141.8594142563034" stroke="rgb(0%, 0%, 100%)" stroke-width="1.0" />
<line x1="42.269178897279154" y1="114.18543635857318" x2="62.629887481677684" y2="123.76100662572692" stroke="rgb(0%, 0%, 100%)" stroke-width="1.0" />
<line x1="51.31277303847993" y1="94.95587825108566" x2="71.67348162287847" y2="104.53144851823942" stroke="rgb(0%, 0%, 100%)" stroke-width="1.0" />
<line x1="50.24882078657397" y1="97.2181792049077" x2="70.60952937097251" y2="106.79374947206145" stroke="rgb(0%, 0%, 100%)" stroke-width="1.0" />
<line x1="65.08069972248074" y1="65.68074274405339" x2="85.44144186629302" y2="75.25624165289295" stroke="rgb(0%, 0%, 100%)" stroke-width="1.0" />
<line x1="64.01675539927635" y1="67.94304742669922" x2="84.37749754308862" y2="77.51854633553879" stroke="rgb(0%, 0%, 100%)" stroke-width="1.0" />
<line x1="73.59225430811594" y1="47.58230528288695" x2="93.95299645192819" y2="57.15780419172651" stroke="rgb(0%, 0%, 100%)" stroke-width="1.0" />
<line x1="72.52830998491154" y1="49.84460996553278" x2="92.88905212872379" y2="59.420108874372346" stroke="rgb(0%, 0%, 100%)" stroke-width="1.0" />
<circle cx="13.81561886658266" cy="219.16468811035156" r="5.0" stroke="none" stroke-width="1.0" fill="rgb(94%, 94%, 94%)"/>
<circle cx="13.81561886658266" cy="219.16468811035156" r="5.0" stroke="rgb(35%, 35%, 35%)" stroke-width="1.0" fill="none"/>
<text x="13.81561886658266" y="222.16468811035156" text-anchor="middle" font-family="Verdana" font-size="7.5" fill="rgb(0%, 0%, 0%)" >G</text>
<circle cx="13.81561886658266" cy="199.16468811035156" r="5.0" stroke="none" stroke-width="1.0" fill="rgb(94%, 94%, 94%)"/>
<circle cx="13.81561886658266" cy="199.16468811035156" r="5.0" stroke="rgb(35%, 35%, 35%)" stroke-width="1.0" fill="none"/>
<text x="13.81561886658266" y="202.16468811035156" text-anchor="middle" font-family="Verdana" font-size="7.5" fill="rgb(0%, 0%, 0%)" >C</text>
<circle cx="13.81561886658266" cy="179.16468811035156" r="5.0" stroke="none" stroke-width="1.0" fill="rgb(94%, 94%, 94%)"/>
<circle cx="13.81561886658266" cy="179.16468811035156" r="5.0" stroke="rgb(35%, 35%, 35%)" stroke-width="1.0" fill="none"/>
<text x="13.81561886658266" y="182.16468811035156" text-anchor="middle" font-family="Verdana" font-size="7.5" fill="rgb(0%, 0%, 0%)" >U</text>
<circle cx="10.0" cy="162.08565644891655" r="5.0" stroke="none" stroke-width="1.0" fill="rgb(94%, 94%, 94%)"/>
<circle cx="10.0" cy="162.08565644891655" r="5.0" stroke="rgb(35%, 35%, 35%)" stroke-width="1.0" fill="none"/>
<text x="10.0" y="165.08565644891655" text-anchor="middle" font-family="Verdana" font-size="7.5" fill="rgb(0%, 0%, 0%)" >U</text>
<circle cx="20.72134095913944" cy="148.2543471159142" r="5.0" stroke="none" stroke-width="1.0" fill="rgb(94%, 94%, 94%)"/>
<circle cx="20.72134095913944" cy="148.2543471159142" r="5.0" stroke="rgb(35%, 35%, 35%)" stroke-width="1.0" fill="none"/>
<text x="20.72134095913944" y="151.2543471159142" text-anchor="middle" font-family="Verdana" font-size="7.5" fill="rgb(0%, 0%, 0%)" >G</text>
<circle cx="29.232958974387238" cy="130.15593948533768" r="5.0" stroke="none" stroke-width="1.0" fill="rgb(94%, 94%, 94%)"/>
<circle cx="29.232958974387238" cy="130.15593948533768" r="5.0" stroke="rgb(35%, 35%, 35%)" stroke-width="1.0" fill="none"/>
<text x="29.232958974387238" y="133.15593948533768" text-anchor="middle" font-family="Verdana" font-size="7.5" fill="rgb(0%, 0%, 0%)" >U</text>
<circle cx="37.74457698963503" cy="112.05753185476124" r="5.0" stroke="none" stroke-width="1.0" fill="rgb(94%, 94%, 94%)"/>
<circle cx="37.74457698963503" cy="112.05753185476124" r="5.0" stroke="rgb(35%, 35%, 35%)" stroke-width="1.0" fill="none"/>
<text x="37.74457698963503" y="115.05753185476124" text-anchor="middle" font-family="Verdana" font-size="7.5" fill="rgb(0%, 0%, 0%)" >A</text>
<circle cx="46.25619500488283" cy="93.95912422418473" r="5.0" stroke="none" stroke-width="1.0" fill="rgb(94%, 94%, 94%)"/>
<circle cx="46.25619500488283" cy="93.95912422418473" r="5.0" stroke="rgb(35%, 35%, 35%)" stroke-width="1.0" fill="none"/>
<text x="46.25619500488283" y="96.95912422418473" text-anchor="middle" font-family="Verdana" font-size="7.5" fill="rgb(0%, 0%, 0%)" >C</text>
<circle cx="47.096777669985975" cy="76.47939822111613" r="5.0" stroke="none" stroke-width="1.0" fill="rgb(94%, 94%, 94%)"/>
<circle cx="47.096777669985975" cy="76.47939822111613" r="5.0" stroke="rgb(35%, 35%, 35%)" stroke-width="1.0" fill="none"/>
<text x="47.096777669985975" y="79.47939822111613" text-anchor="middle" font-family="Verdana" font-size="7.5" fill="rgb(0%, 0%, 0%)" >U</text>
<circle cx="60.02411819558694" cy="64.68400643896751" r="5.0" stroke="none" stroke-width="1.0" fill="rgb(94%, 94%, 94%)"/>
<circle cx="60.02411819558694" cy="64.68400643896751" r="5.0" stroke="rgb(35%, 35%, 35%)" stroke-width="1.0" fill="none"/>
<text x="60.02411819558694" y="67.68400643896751" text-anchor="middle" font-family="Verdana" font-size="7.5" fill="rgb(0%, 0%, 0%)" >G</text>
<circle cx="68.53567278122213" cy="46.585568977801074" r="5.0" stroke="none" stroke-width="1.0" fill="rgb(94%, 94%, 94%)"/>
<circle cx="68.53567278122213" cy="46.585568977801074" r="5.0" stroke="rgb(35%, 35%, 35%)" stroke-width="1.0" fill="none"/>
<text x="68.53567278122213" y="49.585568977801074" text-anchor="middle" font-family="Verdana" font-size="7.5" fill="rgb(0%, 0%, 0%)" >C</text>
<circle cx="66.95574160714008" cy="29.157058734402824" r="5.0" stroke="none" stroke-width="1.0" fill="rgb(94%, 94%, 94%)"/>
<circle cx="66.95574160714008" cy="29.157058734402824" r="5.0" stroke="rgb(35%, 35%, 35%)" stroke-width="1.0" fill="none"/>
<text x="66.95574160714008" y="32.157058734402824" text-anchor="middle" font-family="Verdana" font-size="7.5" fill="rgb(0%, 0%, 0%)" >U</text>
<circle cx="76.97893131163408" cy="14.81185675022715" r="5.0" stroke="none" stroke-width="1.0" fill="rgb(94%, 94%, 94%)"/>
<circle cx="76.97893131163408" cy="14.81185675022715" r="5.0" stroke="rgb(35%, 35%, 35%)" stroke-width="1.0" fill="none"/>
<text x="76.97893131163408" y="17.81185675022715" text-anchor="middle" font-family="Verdana" font-size="7.5" fill="rgb(0%, 0%, 0%)" >G</text>
<circle cx="93.88772814354323" cy="10.301674767613633" r="5.0" stroke="none" stroke-width="1.0" fill="rgb(94%, 94%, 94%)"/>
<circle cx="93.88772814354323" cy="10.301674767613633" r="5.0" stroke="rgb(35%, 35%, 35%)" stroke-width="1.0" fill="none"/>
<text x="93.88772814354323" y="13.301674767613633" text-anchor="middle" font-family="Verdana" font-size="7.5" fill="rgb(0%, 0%, 0%)" >A</text>
<circle cx="109.7238389924066" cy="17.749274716696902" r="5.0" stroke="none" stroke-width="1.0" fill="rgb(94%, 94%, 94%)"/>
<circle cx="109.7238389924066" cy="17.749274716696902" r="5.0" stroke="rgb(35%, 35%, 35%)" stroke-width="1.0" fill="none"/>
<text x="109.7238389924066" y="20.749274716696902" text-anchor="middle" font-family="Verdana" font-size="7.5" fill="rgb(0%, 0%, 0%)" >A</text>
<circle cx="117.03384105600725" cy="33.649369736828874" r="5.0" stroke="none" stroke-width="1.0" fill="rgb(94%, 94%, 94%)"/>
<circle cx="117.03384105600725" cy="33.649369736828874" r="5.0" stroke="rgb(35%, 35%, 35%)" stroke-width="1.0" fill="none"/>
<text x="117.03384105600725" y="36.649369736828874" text-anchor="middle" font-family="Verdana" font-size="7.5" fill="rgb(0%, 0%, 0%)" >G</text>
<circle cx="112.37720928466075" cy="50.51842224030872" r="5.0" stroke="none" stroke-width="1.0" fill="rgb(94%, 94%, 94%)"/>
<circle cx="112.37720928466075" cy="50.51842224030872" r="5.0" stroke="rgb(35%, 35%, 35%)" stroke-width="1.0" fill="none"/>
<text x="112.37720928466075" y="53.51842224030872" text-anchor="middle" font-family="Verdana" font-size="7.5" fill="rgb(0%, 0%, 0%)" >U</text>
<circle cx="97.9456336556176" cy="60.41684517945822" r="5.0" stroke="none" stroke-width="1.0" fill="rgb(94%, 94%, 94%)"/>
<circle cx="97.9456336556176" cy="60.41684517945822" r="5.0" stroke="rgb(35%, 35%, 35%)" stroke-width="1.0" fill="none"/>
<text x="97.9456336556176" y="63.41684517945822" text-anchor="middle" font-family="Verdana" font-size="7.5" fill="rgb(0%, 0%, 0%)" >G</text>
<circle cx="89.43407906998243" cy="78.51528264062466" r="5.0" stroke="none" stroke-width="1.0" fill="rgb(94%, 94%, 94%)"/>
<circle cx="89.43407906998243" cy="78.51528264062466" r="5.0" stroke="rgb(35%, 35%, 35%)" stroke-width="1.0" fill="none"/>
<text x="89.43407906998243" y="81.51528264062466" text-anchor="middle" font-family="Verdana" font-size="7.5" fill="rgb(0%, 0%, 0%)" >C</text>
<circle cx="88.59352346792542" cy="95.99508430654322" r="5.0" stroke="none" stroke-width="1.0" fill="rgb(94%, 94%, 94%)"/>
<circle cx="88.59352346792542" cy="95.99508430654322" r="5.0" stroke="rgb(35%, 35%, 35%)" stroke-width="1.0" fill="none"/>
<text x="88.59352346792542" y="98.99508430654322" text-anchor="middle" font-family="Verdana" font-size="7.5" fill="rgb(0%, 0%, 0%)" >U</text>
<circle cx="75.66610740456962" cy="107.79050349896238" r="5.0" stroke="none" stroke-width="1.0" fill="rgb(94%, 94%, 94%)"/>
<circle cx="75.66610740456962" cy="107.79050349896238" r="5.0" stroke="rgb(35%, 35%, 35%)" stroke-width="1.0" fill="none"/>
<text x="75.66610740456962" y="110.79050349896238" text-anchor="middle" font-family="Verdana" font-size="7.5" fill="rgb(0%, 0%, 0%)" >G</text>
<circle cx="67.15448938932181" cy="125.88891112953887" r="5.0" stroke="none" stroke-width="1.0" fill="rgb(94%, 94%, 94%)"/>
<circle cx="67.15448938932181" cy="125.88891112953887" r="5.0" stroke="rgb(35%, 35%, 35%)" stroke-width="1.0" fill="none"/>
<text x="67.15448938932181" y="128.88891112953888" text-anchor="middle" font-family="Verdana" font-size="7.5" fill="rgb(0%, 0%, 0%)" >U</text>
<circle cx="58.64287137407402" cy="143.9873187601154" r="5.0" stroke="none" stroke-width="1.0" fill="rgb(94%, 94%, 94%)"/>
<circle cx="58.64287137407402" cy="143.9873187601154" r="5.0" stroke="rgb(35%, 35%, 35%)" stroke-width="1.0" fill="none"/>
<text x="58.64287137407402" y="146.9873187601154" text-anchor="middle" font-family="Verdana" font-size="7.5" fill="rgb(0%, 0%, 0%)" >A</text>
<circle cx="50.13125335882623" cy="162.08572639069183" r="5.0" stroke="none" stroke-width="1.0" fill="rgb(94%, 94%, 94%)"/>
<circle cx="50.13125335882623" cy="162.08572639069183" r="5.0" stroke="rgb(35%, 35%, 35%)" stroke-width="1.0" fill="none"/>
<text x="50.13125335882623" y="165.08572639069183" text-anchor="middle" font-family="Verdana" font-size="7.5" fill="rgb(0%, 0%, 0%)" >C</text>
<circle cx="46.31561886658266" cy="179.16468811035156" r="5.0" stroke="none" stroke-width="1.0" fill="rgb(94%, 94%, 94%)"/>
<circle cx="46.31561886658266" cy="179.16468811035156" r="5.0" stroke="rgb(35%, 35%, 35%)" stroke-width="1.0" fill="none"/>
<text x="46.31561886658266" y="182.16468811035156" text-anchor="middle" font-family="Verdana" font-size="7.5" fill="rgb(0%, 0%, 0%)" >A</text>
<circle cx="46.31561886658266" cy="199.16468811035156" r="5.0" stroke="none" stroke-width="1.0" fill="rgb(94%, 94%, 94%)"/>
<circle cx="46.31561886658266" cy="199.16468811035156" r="5.0" stroke="rgb(35%, 35%, 35%)" stroke-width="1.0" fill="none"/>
<text x="46.31561886658266" y="202.16468811035156" text-anchor="middle" font-family="Verdana" font-size="7.5" fill="rgb(0%, 0%, 0%)" >G</text>
<circle cx="46.31561886658266" cy="219.16468811035156" r="5.0" stroke="none" stroke-width="1.0" fill="rgb(94%, 94%, 94%)"/>
<circle cx="46.31561886658266" cy="219.16468811035156" r="5.0" stroke="rgb(35%, 35%, 35%)" stroke-width="1.0" fill="none"/>
<text x="46.31561886658266" y="222.16468811035156" text-anchor="middle" font-family="Verdana" font-size="7.5" fill="rgb(0%, 0%, 0%)" >U</text>
<line x1="13.81561886658266" y1="226.66468811035156" x2="13.81561886658266" y2="231.66468811035156" stroke="rgb(25%, 25%, 25%)" stroke-width="1.0" />
<text x="13.81561886658266" y="242.16468811035156" text-anchor="middle" font-family="Verdana" font-size="7.5" fill="rgb(25%, 25%, 25%)" >1</text>
<line x1="53.23720694425951" y1="61.492167522824474" x2="48.71259944337457" y2="59.36427491206243" stroke="rgb(25%, 25%, 25%)" stroke-width="1.0" />
<text x="41.92568819204715" y="59.172435995919386" text-anchor="middle" font-family="Verdana" font-size="7.5" fill="rgb(25%, 25%, 25%)" >10</text>
<line x1="95.38043192263764" y1="99.18692916921367" x2="99.90503755911246" y2="101.31482574432732" stroke="rgb(25%, 25%, 25%)" stroke-width="1.0" />
<text x="106.69194601382469" y="107.50667060699777" text-anchor="middle" font-family="Verdana" font-size="7.5" fill="rgb(25%, 25%, 25%)" >20</text>
<line x1="46.31561886658266" y1="226.66468811035156" x2="46.31561886658266" y2="231.66468811035156" stroke="rgb(25%, 25%, 25%)" stroke-width="1.0" />
<text x="46.31561886658266" y="242.16468811035156" text-anchor="middle" font-family="Verdana" font-size="7.5" fill="rgb(25%, 25%, 25%)" >27</text>
<text x="28.196766410226196" y="168.55102123524514" text-anchor="middle" font-family="Verdana" font-size="6.0" fill="rgb(0%, 0%, 0%)" >245</text>
<text x="67.84513346882221" y="88.63723322173311" text-anchor="middle" font-family="Verdana" font-size="6.0" fill="rgb(0%, 0%, 0%)" >258</text>
<text x="92.92982460402897" y="35.29875888791721" text-anchor="middle" font-family="Verdana" font-size="6.0" fill="rgb(0%, 0%, 0%)" >227</text>
</svg>
