<?xml version="1.0" encoding="UTF-8"?>
<!DOCTYPE svg PUBLIC "-//W3C//DTD SVG 1.1//EN" 
"http://www.w3.org/Graphics/SVG/1.1/DTD/svg11.dtd">

<svg width="100%" height="100%" version="1.1"
xmlns="http://www.w3.org/2000/svg">
<path d="M 25.332170510173448 65.69134521484375 L 25.49564554679454 64.78326416015625 L 25.48948099601329 63.860595703125 L 25.313879036784776 62.95478820800781 L 24.97482492911876 62.096649169921875 L 24.483861946941026 61.3154296875 L 23.857709908366807 60.637725830078125 L 23.117692971110948 60.08662414550781 L 22.2890072106129 59.680877685546875 L 21.39988138663829 59.43431091308594 L 20.480585121989854 59.355316162109375 L 19.562425637126573 59.44659423828125 L 18.67667391288341 59.70501708984375 L 17.85348703849376 60.12181091308594 L 17.12090303885997 60.68275451660156 L 16.503866219401964 61.3687744140625 L 16.023389840007432 62.15647888183594 L 7.818460488200792 78.91398620605469 L 7.818460488200792 98.73072814941406 L 16.532777809978136 116.52857971191406 L 29.337083840251573 126.469482421875 L 29.337083840251573 144.02134704589844 L 29.42222025382579 144.94009399414062 L 29.67472269523204 145.82755279541016 L 30.086000466228136 146.65351104736328 L 30.642038369060167 147.38982391357422 L 31.32391169059337 148.01143646240234 L 32.108392739177354 148.49716186523438 L 32.968771004558214 148.83047485351562 L 33.87574198234142 149.00001525878906 L 34.79842569816173 149.00001525878906 L 35.7054004906422 148.83047485351562 L 36.56577494132579 148.49716186523438 L 37.350255989909776 148.01143646240234 L 38.03212931144298 147.38982391357422 L 38.588171028972276 146.65351104736328 L 38.999444985271104 145.82755279541016 L 39.25195124137462 144.94009399414062 L 39.33708384025157 144.02134704589844 L 39.33708384025157 121.57321166992188 L 24.49522974479259 110.0504150390625 L 17.81846048820079 96.41398620605469 L 17.81846048820079 81.23072814941406 L 25.00461771476329 66.55393981933594 z" fill="rgb(82%, 67%, 76%)" style="stroke:none;"/>
<path d="M 25.332170510173448 65.69134521484375 L 25.49564554679454 64.78326416015625 L 25.48948099601329 63.860595703125 L 25.313879036784776 62.95478820800781 L 24.97482492911876 62.096649169921875 L 24.483861946941026 61.3154296875 L 23.857709908366807 60.637725830078125 L 23.117692971110948 60.08662414550781 L 22.2890072106129 59.680877685546875 L 21.39988138663829 59.43431091308594 L 20.480585121989854 59.355316162109375 L 19.562425637126573 59.44659423828125 L 18.67667391288341 59.70501708984375 L 17.85348703849376 60.12181091308594 L 17.12090303885997 60.68275451660156 L 16.503866219401964 61.3687744140625 L 16.023389840007432 62.15647888183594 L 7.818460488200792 78.91398620605469 L 7.818460488200792 98.73072814941406 L 16.532777809978136 116.52857971191406 L 29.337083840251573 126.469482421875 L 29.337083840251573 144.02134704589844 L 29.42222025382579 144.94009399414062 L 29.67472269523204 145.82755279541016 L 30.086000466228136 146.65351104736328 L 30.642038369060167 147.38982391357422 L 31.32391169059337 148.01143646240234 L 32.108392739177354 148.49716186523438 L 32.968771004558214 148.83047485351562 L 33.87574198234142 149.00001525878906 L 34.79842569816173 149.00001525878906 L 35.7054004906422 148.83047485351562 L 36.56577494132579 148.49716186523438 L 37.350255989909776 148.01143646240234 L 38.03212931144298 147.38982391357422 L 38.588171028972276 146.65351104736328 L 38.999444985271104 145.82755279541016 L 39.25195124137462 144.94009399414062 L 39.33708384025157 144.02134704589844 L 39.33708384025157 121.57321166992188 L 24.49522974479259 110.0504150390625 L 17.81846048820079 96.41398620605469 L 17.81846048820079 81.23072814941406 L 25.00461771476329 66.55393981933594 z" style="fill:none; stroke:rgb(43%, 84%, 43%); stroke-width:1.0;"/>
<path d="M 75.8419971703297 111.953369140625 L 75.67852213370861 112.8614501953125 L 75.68468668448986 113.78410339355469 L 75.86029245841564 114.68992614746094 L 76.19934275138439 115.54806518554688 L 76.69030954825939 116.32928466796875 L 77.31646158683361 117.00697326660156 L 78.0564747093922 117.55809020996094 L 78.88515665519299 117.96383666992188 L 79.77428629386486 118.21040344238281 L 80.6935825585133 118.28939819335938 L 81.61174204337658 118.1981201171875 L 82.49749948966564 117.93968200683594 L 83.32068064200939 117.52290344238281 L 84.05326273429455 116.96194458007812 L 84.67030527579846 116.27593994140625 L 85.15078165519299 115.48823547363281 L 93.35570719230236 98.73072814941406 L 93.35570719230236 78.91398620605469 L 84.64138987052502 61.116119384765625 L 73.3694858788258 52.36494445800781 L 79.99801065909924 41.052001953125 L 80.3890171288258 40.21626281738281 L 80.61979868400158 39.322906494140625 L 80.68249704825939 38.40235900878906 L 80.57497599113049 37.4859619140625 L 80.30090525138439 36.60491943359375 L 79.8696079491383 35.78924560546875 L 79.29577066886486 35.06671142578125 L 78.59893991935314 34.4619140625 L 77.80284311759533 33.99546813964844 L 76.93459513175549 33.68324279785156 L 76.02375223624767 33.535858154296875 L 75.10134317863049 33.55836486816406 L 74.19877817618908 33.74998474121094 L 73.34678843009533 34.10418701171875 L 72.57438852775158 34.60890197753906 L 71.90787699210705 35.24696350097656 L 71.36995890128674 35.996612548828125 L 60.304689431071886 54.88179016113281 L 76.67894175040783 67.59429931640625 L 83.35570719230236 81.23072814941406 L 83.35570719230236 96.41398620605469 L 76.16954996573986 111.09077453613281 z" fill="rgb(82%, 67%, 76%)" style="stroke:none;"/>
<path d="M 75.8419971703297 111.953369140625 L 75.67852213370861 112.8614501953125 L 75.68468668448986 113.78410339355469 L 75.86029245841564 114.68992614746094 L 76.19934275138439 115.54806518554688 L 76.69030954825939 116.32928466796875 L 77.31646158683361 117.00697326660156 L 78.0564747093922 117.55809020996094 L 78.88515665519299 117.96383666992188 L 79.77428629386486 118.21040344238281 L 80.6935825585133 118.28939819335938 L 81.61174204337658 118.1981201171875 L 82.49749948966564 117.93968200683594 L 83.32068064200939 117.52290344238281 L 84.05326273429455 116.96194458007812 L 84.67030527579846 116.27593994140625 L 85.15078165519299 115.48823547363281 L 93.35570719230236 98.73072814941406 L 93.35570719230236 78.91398620605469 L 84.64138987052502 61.116119384765625 L 73.3694858788258 52.36494445800781 L 79.99801065909924 41.052001953125 L 80.3890171288258 40.21626281738281 L 80.61979868400158 39.322906494140625 L 80.68249704825939 38.40235900878906 L 80.57497599113049 37.4859619140625 L 80.30090525138439 36.60491943359375 L 79.8696079491383 35.78924560546875 L 79.29577066886486 35.06671142578125 L 78.59893991935314 34.4619140625 L 77.80284311759533 33.99546813964844 L 76.93459513175549 33.68324279785156 L 76.02375223624767 33.535858154296875 L 75.10134317863049 33.55836486816406 L 74.19877817618908 33.74998474121094 L 73.34678843009533 34.10418701171875 L 72.57438852775158 34.60890197753906 L 71.90787699210705 35.24696350097656 L 71.36995890128674 35.996612548828125 L 60.304689431071886 54.88179016113281 L 76.67894175040783 67.59429931640625 L 83.35570719230236 81.23072814941406 L 83.35570719230236 96.41398620605469 L 76.16954996573986 111.09077453613281 z" style="fill:none; stroke:rgb(43%, 84%, 43%); stroke-width:1.0;"/>
<path d="M 70.99585916984142 40.262542724609375 L 71.39508249747814 41.094390869140625 L 71.94036295402111 41.838714599609375 L 72.61312296378674 42.47016906738281 L 73.39046671378674 42.967254638671875 L 74.24590494620861 43.31303405761719 L 75.15031626212658 43.49574279785156 L 76.07290079581799 43.5091552734375 L 76.98224070060314 43.352813720703125 L 77.84737589347424 43.03204345703125 L 78.63883402335705 42.557769775390625 L 79.3296680687672 41.94615173339844 L 79.89635660636486 41.217987060546875 L 80.31959726798596 40.398101806640625 L 80.58497812736096 39.514404296875 L 80.68345835197033 38.59700012207031 L 80.61168863761486 37.67710876464844 L 77.33709909904064 18.63067626953125 L 61.16297342765392 5.0 L 40.011198067546495 5.0 L 23.83706858146251 18.63067626953125 L 20.253099465251573 39.47660827636719 L 27.80468561637462 52.36494445800781 L 17.447761559367784 60.40576171875 L 16.774261498332628 61.03642272949219 L 16.22811319816173 61.78010559082031 L 15.827915215373643 62.611480712890625 L 15.587295555949815 63.50224304199219 L 15.51445009696544 64.42204284667969 L 15.611858391643175 65.33956909179688 L 15.876203560710557 66.22358703613281 L 16.298482918620714 67.04396057128906 L 16.86431696403087 67.77278137207031 L 17.55443575370372 68.38522338867188 L 18.34534075248302 68.86041259765625 L 19.210096382976182 69.18220520019531 L 20.11925318229259 69.339599609375 L 21.041856789470323 69.3272705078125 L 21.946481728435167 69.14561462402344 L 22.802324318767198 68.80082702636719 L 23.580244088054307 68.30465698242188 L 40.869482064128526 54.88179016113281 L 30.72726633536876 37.57200622558594 L 33.07370951163829 23.924072265625 L 43.66299631583751 15.0 L 57.511171364665636 15.0 L 68.10045816886486 23.924072265625 L 70.75628092277111 39.37150573730469 z" fill="rgb(76%, 52%, 82%)" style="stroke:none;"/>
<path d="M 70.99585916984142 40.262542724609375 L 71.39508249747814 41.094390869140625 L 71.94036295402111 41.838714599609375 L 72.61312296378674 42.47016906738281 L 73.39046671378674 42.967254638671875 L 74.24590494620861 43.31303405761719 L 75.15031626212658 43.49574279785156 L 76.07290079581799 43.5091552734375 L 76.98224070060314 43.352813720703125 L 77.84737589347424 43.03204345703125 L 78.63883402335705 42.557769775390625 L 79.3296680687672 41.94615173339844 L 79.89635660636486 41.217987060546875 L 80.31959726798596 40.398101806640625 L 80.58497812736096 39.514404296875 L 80.68345835197033 38.59700012207031 L 80.61168863761486 37.67710876464844 L 77.33709909904064 18.63067626953125 L 61.16297342765392 5.0 L 40.011198067546495 5.0 L 23.83706858146251 18.63067626953125 L 20.253099465251573 39.47660827636719 L 27.80468561637462 52.36494445800781 L 17.447761559367784 60.40576171875 L 16.774261498332628 61.03642272949219 L 16.22811319816173 61.78010559082031 L 15.827915215373643 62.611480712890625 L 15.587295555949815 63.50224304199219 L 15.51445009696544 64.42204284667969 L 15.611858391643175 65.33956909179688 L 15.876203560710557 66.22358703613281 L 16.298482918620714 67.04396057128906 L 16.86431696403087 67.77278137207031 L 17.55443575370372 68.38522338867188 L 18.34534075248302 68.86041259765625 L 19.210096382976182 69.18220520019531 L 20.11925318229259 69.339599609375 L 21.041856789470323 69.3272705078125 L 21.946481728435167 69.14561462402344 L 22.802324318767198 68.80082702636719 L 23.580244088054307 68.30465698242188 L 40.869482064128526 54.88179016113281 L 30.72726633536876 37.57200622558594 L 33.07370951163829 23.924072265625 L 43.66299631583751 15.0 L 57.511171364665636 15.0 L 68.10045816886486 23.924072265625 L 70.75628092277111 39.37150573730469 z" style="fill:none; stroke:rgb(43%, 84%, 43%); stroke-width:1.0;"/>
<line x1="34.33708461498545" y1="219.02134704589844" x2="34.33708461498545" y2="209.02134704589844" stroke="rgb(35%, 35%, 35%)" stroke-width="1.0" />
<line x1="34.33708461498545" y1="199.02134704589844" x2="34.33708461498545" y2="189.02134704589844" stroke="rgb(35%, 35%, 35%)" stroke-width="1.0" />
<line x1="34.33708461498545" y1="179.02134704589844" x2="34.33708461498545" y2="169.02134704589844" stroke="rgb(35%, 35%, 35%)" stroke-width="1.0" />
<line x1="34.33708461498545" y1="159.02134704589844" x2="34.33708461498545" y2="149.02134704589844" stroke="rgb(35%, 35%, 35%)" stroke-width="1.0" />
<line x1="34.33708461498545" y1="139.02134704589844" x2="34.33708461498545" y2="129.02134704589844" stroke="rgb(35%, 35%, 35%)" stroke-width="1.0" />
<line x1="30.387633226224303" y1="120.95510606909758" x2="24.463454829772054" y2="116.35574358427962" stroke="rgb(35%, 35%, 35%)" stroke-width="1.0" />
<line x1="18.315277091962923" y1="108.798889905185" x2="15.017186837248776" y2="102.06296935848152" stroke="rgb(35%, 35%, 35%)" stroke-width="1.0" />
<line x1="12.818460488200792" y1="92.57235665618776" x2="12.818460488200792" y2="85.07235499353845" stroke="rgb(35%, 35%, 35%)" stroke-width="1.0" />
<line x1="15.017186837248772" y1="75.5817422912447" x2="18.31527709196292" y2="68.84582174454118" stroke="rgb(35%, 35%, 35%)" stroke-width="1.0" />
<line x1="24.463454829772047" y1="61.28896806544657" x2="30.38763322622429" y2="56.68960558062861" stroke="rgb(35%, 35%, 35%)" stroke-width="1.0" />
<line x1="31.809395374247003" y1="49.30934245480543" x2="28.01787376422103" y2="42.838330140265356" stroke="rgb(35%, 35%, 35%)" stroke-width="1.0" />
<line x1="26.337387158075906" y1="33.59660592070975" x2="27.608187003785225" y2="26.205076698257244" stroke="rgb(35%, 35%, 35%)" stroke-width="1.0" />
<line x1="32.27873981675394" y1="18.055264540604526" x2="38.01374655348881" y2="13.222115026692336" stroke="rgb(35%, 35%, 35%)" stroke-width="1.0" />
<line x1="46.837096731864214" y1="10.000004939572904" x2="54.33707249810663" y2="10.000004939572904" stroke="rgb(35%, 35%, 35%)" stroke-width="1.0" />
<line x1="63.16042267648205" y1="13.222115026692308" x2="68.8954294132169" y2="18.055264540604497" stroke="rgb(35%, 35%, 35%)" stroke-width="1.0" />
<line x1="73.56598222618564" y1="26.205076698257187" x2="74.83678207189496" y2="33.59660592070969" stroke="rgb(35%, 35%, 35%)" stroke-width="1.0" />
<line x1="73.15629546574985" y1="42.8383301402653" x2="69.36477385572388" y2="49.30934245480543" stroke="rgb(35%, 35%, 35%)" stroke-width="1.0" />
<line x1="70.78653600374659" y1="56.68960558062861" x2="76.71071440019884" y2="61.28896806544657" stroke="rgb(35%, 35%, 35%)" stroke-width="1.0" />
<line x1="82.85889213800797" y1="68.84582174454118" x2="86.15698239272211" y2="75.5817422912447" stroke="rgb(35%, 35%, 35%)" stroke-width="1.0" />
<line x1="88.35570874177012" y1="85.07235499353845" x2="88.35570874177012" y2="92.57235665618774" stroke="rgb(35%, 35%, 35%)" stroke-width="1.0" />
<line x1="86.15698239272211" y1="102.0629693584815" x2="82.858892138008" y2="108.79888990518498" stroke="rgb(35%, 35%, 35%)" stroke-width="1.0" />
<line x1="76.71071440019887" y1="116.3557435842796" x2="70.78653600374659" y2="120.95510606909758" stroke="rgb(35%, 35%, 35%)" stroke-width="1.0" />
<line x1="66.83708461498546" y1="129.02134704589844" x2="66.83708461498546" y2="139.02134704589844" stroke="rgb(35%, 35%, 35%)" stroke-width="1.0" />
<line x1="66.83708461498546" y1="149.02134704589844" x2="66.83708461498546" y2="159.02134704589844" stroke="rgb(35%, 35%, 35%)" stroke-width="1.0" />
<line x1="66.83708461498546" y1="169.02134704589844" x2="66.83708461498546" y2="179.02134704589844" stroke="rgb(35%, 35%, 35%)" stroke-width="1.0" />
<line x1="66.83708461498546" y1="189.02134704589844" x2="66.83708461498546" y2="199.02134704589844" stroke="rgb(35%, 35%, 35%)" stroke-width="1.0" />
<line x1="66.83708461498546" y1="209.02134704589844" x2="66.83708461498546" y2="219.02134704589844" stroke="rgb(35%, 35%, 35%)" stroke-width="1.0" />
<line x1="71.83708461498546" y1="224.02134704589844" x2="79.33708461498546" y2="224.02134704589844" stroke="rgb(35%, 35%, 35%)" stroke-width="1.0" />
<line x1="39.33708461498545" y1="224.02134704589844" x2="61.83708461498545" y2="224.02134704589844" stroke="rgb(0%, 0%, 100%)" stroke-width="1.0" />
<line x1="39.33708461498545" y1="202.77134704589844" x2="61.83708461498545" y2="202.77134704589844" stroke="rgb(0%, 0%, 100%)" stroke-width="1.0" />
<line x1="39.33708461498545" y1="205.27134704589844" x2="61.83708461498545" y2="205.27134704589844" stroke="rgb(0%, 0%, 100%)" stroke-width="1.0" />
<line x1="39.33708461498545" y1="182.77134704589844" x2="61.83708461498545" y2="182.77134704589844" stroke="rgb(0%, 0%, 100%)" stroke-width="1.0" />
<line x1="39.33708461498545" y1="185.27134704589844" x2="61.83708461498545" y2="185.27134704589844" stroke="rgb(0%, 0%, 100%)" stroke-width="1.0" />
<line x1="39.33708461498545" y1="162.77134704589844" x2="61.83708461498545" y2="162.77134704589844" stroke="rgb(0%, 0%, 100%)" stroke-width="1.0" />
<line x1="39.33708461498545" y1="165.27134704589844" x2="61.83708461498545" y2="165.27134704589844" stroke="rgb(0%, 0%, 100%)" stroke-width="1.0" />
<line x1="39.33708461498545" y1="142.77134704589844" x2="61.83708461498545" y2="142.77134704589844" stroke="rgb(0%, 0%, 100%)" stroke-width="1.0" />
<line x1="39.33708461498545" y1="145.27134704589844" x2="61.83708461498545" y2="145.27134704589844" stroke="rgb(0%, 0%, 100%)" stroke-width="1.0" />
<line x1="39.33708461498545" y1="124.02134704589844" x2="61.83708461498545" y2="124.02134704589844" stroke="rgb(0%, 0%, 100%)" stroke-width="1.0" />
<line x1="39.337084614985436" y1="52.37336460382775" x2="61.83708461498545" y2="52.37336460382775" stroke="rgb(0%, 0%, 100%)" stroke-width="1.0" />
<line x1="39.337084614985436" y1="54.87336460382775" x2="61.83708461498545" y2="54.87336460382775" stroke="rgb(0%, 0%, 100%)" stroke-width="1.0" />
<circle cx="34.33708461498545" cy="224.02134704589844" r="5.0" stroke="none" stroke-width="1.0" fill="rgb(94%, 94%, 94%)"/>
<circle cx="34.33708461498545" cy="224.02134704589844" r="5.0" stroke="rgb(35%, 35%, 35%)" stroke-width="1.0" fill="none"/>
<text x="34.33708461498545" y="227.02134704589844" text-anchor="middle" font-family="Verdana" font-size="7.5" fill="rgb(0%, 0%, 0%)" >U</text>
<circle cx="34.33708461498545" cy="204.02134704589844" r="5.0" stroke="none" stroke-width="1.0" fill="rgb(94%, 94%, 94%)"/>
<circle cx="34.33708461498545" cy="204.02134704589844" r="5.0" stroke="rgb(35%, 35%, 35%)" stroke-width="1.0" fill="none"/>
<text x="34.33708461498545" y="207.02134704589844" text-anchor="middle" font-family="Verdana" font-size="7.5" fill="rgb(0%, 0%, 0%)" >C</text>
<circle cx="34.33708461498545" cy="184.02134704589844" r="5.0" stroke="none" stroke-width="1.0" fill="rgb(94%, 94%, 94%)"/>
<circle cx="34.33708461498545" cy="184.02134704589844" r="5.0" stroke="rgb(35%, 35%, 35%)" stroke-width="1.0" fill="none"/>
<text x="34.33708461498545" y="187.02134704589844" text-anchor="middle" font-family="Verdana" font-size="7.5" fill="rgb(0%, 0%, 0%)" >C</text>
<circle cx="34.33708461498545" cy="164.02134704589844" r="5.0" stroke="none" stroke-width="1.0" fill="rgb(94%, 94%, 94%)"/>
<circle cx="34.33708461498545" cy="164.02134704589844" r="5.0" stroke="rgb(35%, 35%, 35%)" stroke-width="1.0" fill="none"/>
<text x="34.33708461498545" y="167.02134704589844" text-anchor="middle" font-family="Verdana" font-size="7.5" fill="rgb(0%, 0%, 0%)" >G</text>
<circle cx="34.33708461498545" cy="144.02134704589844" r="5.0" stroke="none" stroke-width="1.0" fill="rgb(94%, 94%, 94%)"/>
<circle cx="34.33708461498545" cy="144.02134704589844" r="5.0" stroke="rgb(35%, 35%, 35%)" stroke-width="1.0" fill="none"/>
<text x="34.33708461498545" y="147.02134704589844" text-anchor="middle" font-family="Verdana" font-size="7.5" fill="rgb(0%, 0%, 0%)" >G</text>
<circle cx="34.33708461498545" cy="124.02134704589844" r="5.0" stroke="none" stroke-width="1.0" fill="rgb(94%, 94%, 94%)"/>
<circle cx="34.33708461498545" cy="124.02134704589844" r="5.0" stroke="rgb(35%, 35%, 35%)" stroke-width="1.0" fill="none"/>
<text x="34.33708461498545" y="127.02134704589844" text-anchor="middle" font-family="Verdana" font-size="7.5" fill="rgb(0%, 0%, 0%)" >U</text>
<circle cx="20.514003441010907" cy="113.28950260747877" r="5.0" stroke="none" stroke-width="1.0" fill="rgb(94%, 94%, 94%)"/>
<circle cx="20.514003441010907" cy="113.28950260747877" r="5.0" stroke="rgb(35%, 35%, 35%)" stroke-width="1.0" fill="none"/>
<text x="20.514003441010907" y="116.28950260747877" text-anchor="middle" font-family="Verdana" font-size="7.5" fill="rgb(0%, 0%, 0%)" >U</text>
<circle cx="12.818460488200792" cy="97.57235665618776" r="5.0" stroke="none" stroke-width="1.0" fill="rgb(94%, 94%, 94%)"/>
<circle cx="12.818460488200792" cy="97.57235665618776" r="5.0" stroke="rgb(35%, 35%, 35%)" stroke-width="1.0" fill="none"/>
<text x="12.818460488200792" y="100.57235665618776" text-anchor="middle" font-family="Verdana" font-size="7.5" fill="rgb(0%, 0%, 0%)" >C</text>
<circle cx="12.818460488200792" cy="80.07235499353845" r="5.0" stroke="none" stroke-width="1.0" fill="rgb(94%, 94%, 94%)"/>
<circle cx="12.818460488200792" cy="80.07235499353845" r="5.0" stroke="rgb(35%, 35%, 35%)" stroke-width="1.0" fill="none"/>
<text x="12.818460488200792" y="83.07235499353845" text-anchor="middle" font-family="Verdana" font-size="7.5" fill="rgb(0%, 0%, 0%)" >C</text>
<circle cx="20.5140034410109" cy="64.35520904224742" r="5.0" stroke="none" stroke-width="1.0" fill="rgb(94%, 94%, 94%)"/>
<circle cx="20.5140034410109" cy="64.35520904224742" r="5.0" stroke="rgb(35%, 35%, 35%)" stroke-width="1.0" fill="none"/>
<text x="20.5140034410109" y="67.35520904224742" text-anchor="middle" font-family="Verdana" font-size="7.5" fill="rgb(0%, 0%, 0%)" >A</text>
<circle cx="34.337084614985436" cy="53.62336460382775" r="5.0" stroke="none" stroke-width="1.0" fill="rgb(94%, 94%, 94%)"/>
<circle cx="34.337084614985436" cy="53.62336460382775" r="5.0" stroke="rgb(35%, 35%, 35%)" stroke-width="1.0" fill="none"/>
<text x="34.337084614985436" y="56.62336460382775" text-anchor="middle" font-family="Verdana" font-size="7.5" fill="rgb(0%, 0%, 0%)" >G</text>
<circle cx="25.490184523482597" cy="38.524307991243035" r="5.0" stroke="none" stroke-width="1.0" fill="rgb(94%, 94%, 94%)"/>
<circle cx="25.490184523482597" cy="38.524307991243035" r="5.0" stroke="rgb(35%, 35%, 35%)" stroke-width="1.0" fill="none"/>
<text x="25.490184523482597" y="41.524307991243035" text-anchor="middle" font-family="Verdana" font-size="7.5" fill="rgb(0%, 0%, 0%)" >C</text>
<circle cx="28.455389638378534" cy="21.277374627723958" r="5.0" stroke="none" stroke-width="1.0" fill="rgb(94%, 94%, 94%)"/>
<circle cx="28.455389638378534" cy="21.277374627723958" r="5.0" stroke="rgb(35%, 35%, 35%)" stroke-width="1.0" fill="none"/>
<text x="28.455389638378534" y="24.277374627723958" text-anchor="middle" font-family="Verdana" font-size="7.5" fill="rgb(0%, 0%, 0%)" >C</text>
<circle cx="41.837096731864214" cy="10.000004939572904" r="5.0" stroke="none" stroke-width="1.0" fill="rgb(94%, 94%, 94%)"/>
<circle cx="41.837096731864214" cy="10.000004939572904" r="5.0" stroke="rgb(35%, 35%, 35%)" stroke-width="1.0" fill="none"/>
<text x="41.837096731864214" y="13.000004939572904" text-anchor="middle" font-family="Verdana" font-size="7.5" fill="rgb(0%, 0%, 0%)" >U</text>
<circle cx="59.33707249810663" cy="10.000004939572904" r="5.0" stroke="none" stroke-width="1.0" fill="rgb(94%, 94%, 94%)"/>
<circle cx="59.33707249810663" cy="10.000004939572904" r="5.0" stroke="rgb(35%, 35%, 35%)" stroke-width="1.0" fill="none"/>
<text x="59.33707249810663" y="13.000004939572904" text-anchor="middle" font-family="Verdana" font-size="7.5" fill="rgb(0%, 0%, 0%)" >C</text>
<circle cx="72.71877959159232" cy="21.2773746277239" r="5.0" stroke="none" stroke-width="1.0" fill="rgb(94%, 94%, 94%)"/>
<circle cx="72.71877959159232" cy="21.2773746277239" r="5.0" stroke="rgb(35%, 35%, 35%)" stroke-width="1.0" fill="none"/>
<text x="72.71877959159232" y="24.2773746277239" text-anchor="middle" font-family="Verdana" font-size="7.5" fill="rgb(0%, 0%, 0%)" >C</text>
<circle cx="75.68398470648827" cy="38.52430799124298" r="5.0" stroke="none" stroke-width="1.0" fill="rgb(94%, 94%, 94%)"/>
<circle cx="75.68398470648827" cy="38.52430799124298" r="5.0" stroke="rgb(35%, 35%, 35%)" stroke-width="1.0" fill="none"/>
<text x="75.68398470648827" y="41.52430799124298" text-anchor="middle" font-family="Verdana" font-size="7.5" fill="rgb(0%, 0%, 0%)" >U</text>
<circle cx="66.83708461498546" cy="53.62336460382775" r="5.0" stroke="none" stroke-width="1.0" fill="rgb(94%, 94%, 94%)"/>
<circle cx="66.83708461498546" cy="53.62336460382775" r="5.0" stroke="rgb(35%, 35%, 35%)" stroke-width="1.0" fill="none"/>
<text x="66.83708461498546" y="56.62336460382775" text-anchor="middle" font-family="Verdana" font-size="7.5" fill="rgb(0%, 0%, 0%)" >C</text>
<circle cx="80.66016578896" cy="64.35520904224742" r="5.0" stroke="none" stroke-width="1.0" fill="rgb(94%, 94%, 94%)"/>
<circle cx="80.66016578896" cy="64.35520904224742" r="5.0" stroke="rgb(35%, 35%, 35%)" stroke-width="1.0" fill="none"/>
<text x="80.66016578896" y="67.35520904224742" text-anchor="middle" font-family="Verdana" font-size="7.5" fill="rgb(0%, 0%, 0%)" >A</text>
<circle cx="88.35570874177012" cy="80.07235499353845" r="5.0" stroke="none" stroke-width="1.0" fill="rgb(94%, 94%, 94%)"/>
<circle cx="88.35570874177012" cy="80.07235499353845" r="5.0" stroke="rgb(35%, 35%, 35%)" stroke-width="1.0" fill="none"/>
<text x="88.35570874177012" y="83.07235499353845" text-anchor="middle" font-family="Verdana" font-size="7.5" fill="rgb(0%, 0%, 0%)" >G</text>
<circle cx="88.35570874177012" cy="97.57235665618774" r="5.0" stroke="none" stroke-width="1.0" fill="rgb(94%, 94%, 94%)"/>
<circle cx="88.35570874177012" cy="97.57235665618774" r="5.0" stroke="rgb(35%, 35%, 35%)" stroke-width="1.0" fill="none"/>
<text x="88.35570874177012" y="100.57235665618774" text-anchor="middle" font-family="Verdana" font-size="7.5" fill="rgb(0%, 0%, 0%)" >A</text>
<circle cx="80.66016578896" cy="113.28950260747874" r="5.0" stroke="none" stroke-width="1.0" fill="rgb(94%, 94%, 94%)"/>
<circle cx="80.66016578896" cy="113.28950260747874" r="5.0" stroke="rgb(35%, 35%, 35%)" stroke-width="1.0" fill="none"/>
<text x="80.66016578896" y="116.28950260747874" text-anchor="middle" font-family="Verdana" font-size="7.5" fill="rgb(0%, 0%, 0%)" >A</text>
<circle cx="66.83708461498546" cy="124.02134704589844" r="5.0" stroke="none" stroke-width="1.0" fill="rgb(94%, 94%, 94%)"/>
<circle cx="66.83708461498546" cy="124.02134704589844" r="5.0" stroke="rgb(35%, 35%, 35%)" stroke-width="1.0" fill="none"/>
<text x="66.83708461498546" y="127.02134704589844" text-anchor="middle" font-family="Verdana" font-size="7.5" fill="rgb(0%, 0%, 0%)" >A</text>
<circle cx="66.83708461498546" cy="144.02134704589844" r="5.0" stroke="none" stroke-width="1.0" fill="rgb(94%, 94%, 94%)"/>
<circle cx="66.83708461498546" cy="144.02134704589844" r="5.0" stroke="rgb(35%, 35%, 35%)" stroke-width="1.0" fill="none"/>
<text x="66.83708461498546" y="147.02134704589844" text-anchor="middle" font-family="Verdana" font-size="7.5" fill="rgb(0%, 0%, 0%)" >C</text>
<circle cx="66.83708461498546" cy="164.02134704589844" r="5.0" stroke="none" stroke-width="1.0" fill="rgb(94%, 94%, 94%)"/>
<circle cx="66.83708461498546" cy="164.02134704589844" r="5.0" stroke="rgb(35%, 35%, 35%)" stroke-width="1.0" fill="none"/>
<text x="66.83708461498546" y="167.02134704589844" text-anchor="middle" font-family="Verdana" font-size="7.5" fill="rgb(0%, 0%, 0%)" >C</text>
<circle cx="66.83708461498546" cy="184.02134704589844" r="5.0" stroke="none" stroke-width="1.0" fill="rgb(94%, 94%, 94%)"/>
<circle cx="66.83708461498546" cy="184.02134704589844" r="5.0" stroke="rgb(35%, 35%, 35%)" stroke-width="1.0" fill="none"/>
<text x="66.83708461498546" y="187.02134704589844" text-anchor="middle" font-family="Verdana" font-size="7.5" fill="rgb(0%, 0%, 0%)" >G</text>
<circle cx="66.83708461498546" cy="204.02134704589844" r="5.0" stroke="none" stroke-width="1.0" fill="rgb(94%, 94%, 94%)"/>
<circle cx="66.83708461498546" cy="204.02134704589844" r="5.0" stroke="rgb(35%, 35%, 35%)" stroke-width="1.0" fill="none"/>
<text x="66.83708461498546" y="207.02134704589844" text-anchor="middle" font-family="Verdana" font-size="7.5" fill="rgb(0%, 0%, 0%)" >G</text>
<circle cx="66.83708461498546" cy="224.02134704589844" r="5.0" stroke="none" stroke-width="1.0" fill="rgb(94%, 94%, 94%)"/>
<circle cx="66.83708461498546" cy="224.02134704589844" r="5.0" stroke="rgb(35%, 35%, 35%)" stroke-width="1.0" fill="none"/>
<text x="66.83708461498546" y="227.02134704589844" text-anchor="middle" font-family="Verdana" font-size="7.5" fill="rgb(0%, 0%, 0%)" >A</text>
<circle cx="84.33708461498546" cy="224.02134704589844" r="5.0" stroke="none" stroke-width="1.0" fill="rgb(94%, 94%, 94%)"/>
<circle cx="84.33708461498546" cy="224.02134704589844" r="5.0" stroke="rgb(35%, 35%, 35%)" stroke-width="1.0" fill="none"/>
<text x="84.33708461498546" y="227.02134704589844" text-anchor="middle" font-family="Verdana" font-size="7.5" fill="rgb(0%, 0%, 0%)" >G</text>
<line x1="34.33708461498545" y1="231.52134704589844" x2="34.33708461498545" y2="236.52134704589844" stroke="rgb(25%, 25%, 25%)" stroke-width="1.0" />
<text x="34.33708461498545" y="247.02134704589844" text-anchor="middle" font-family="Verdana" font-size="7.5" fill="rgb(25%, 25%, 25%)" >1</text>
<line x1="14.696252150631814" y1="59.621946961684756" x2="10.81775129037909" y2="56.46643890797631" stroke="rgb(25%, 25%, 25%)" stroke-width="1.0" />
<text x="5.0" y="54.733176827413615" text-anchor="middle" font-family="Verdana" font-size="7.5" fill="rgb(25%, 25%, 25%)" >10</text>
<line x1="95.66219192113914" y1="78.3796342399593" x2="100.53318070738516" y2="77.25115373757322" stroke="rgb(25%, 25%, 25%)" stroke-width="1.0" />
<text x="107.83966388675418" y="78.55843298399407" text-anchor="middle" font-family="Verdana" font-size="7.5" fill="rgb(25%, 25%, 25%)" >20</text>
<line x1="84.33708461498546" y1="231.52134704589844" x2="84.33708461498546" y2="236.52134704589844" stroke="rgb(25%, 25%, 25%)" stroke-width="1.0" />
<text x="84.33708461498546" y="247.02134704589844" text-anchor="middle" font-family="Verdana" font-size="7.5" fill="rgb(25%, 25%, 25%)" >29</text>
<text x="50.58708461498545" y="91.22235582486312" text-anchor="middle" font-family="Verdana" font-size="6.0" fill="rgb(0%, 0%, 0%)" >262</text>
<text x="50.587084614985436" y="33.2562630405919" text-anchor="middle" font-family="Verdana" font-size="6.0" fill="rgb(0%, 0%, 0%)" >227</text>
</svg>
